<svg xmlns="http://www.w3.org/2000/svg" viewBox="0 0 761.207 435.345"><title>Wordmark</title><rect width="761.207" height="435.345" style="fill:#16161d"/><path d="M224.976,210.881h-14.6l-3.75,9.4h-5l13.8-33.552h4.5l13.8,33.552h-5Zm-1.85-4.75-5.451-13.7-5.45,13.7Z" style="fill:#fff"/><path d="M252.926,195.93l-1.45,4.851a6.638,6.638,0,0,0-3.75-1.5c-3.65,0-6.4,2.9-6.4,6.8v14.2h-4.75v-25h4.75v3.1a9.864,9.864,0,0,1,7.4-3.5A8.581,8.581,0,0,1,252.926,195.93Z" style="fill:#fff"/><path d="M253.575,207.781a12.861,12.861,0,0,1,23.952-6.55l-4.25,2.05a8.474,8.474,0,0,0-6.8-3.9,8.4,8.4,0,0,0,0,16.8,8.474,8.474,0,0,0,6.8-3.9l4.25,2.051a12.861,12.861,0,0,1-23.952-6.551Z" style="fill:#fff"/><path d="M305.027,205.931v14.351h-4.8v-14.2a6.519,6.519,0,0,0-6.451-6.8c-3.65,0-6.4,2.9-6.4,6.8v14.2h-4.75V183.03h4.75V198.38a9.866,9.866,0,0,1,7.4-3.5C300.727,194.88,305.027,199.781,305.027,205.931Z" style="fill:#fff"/><path d="M311.125,186.829a2.689,2.689,0,0,1,2.7-2.7,2.7,2.7,0,1,1,0,5.4A2.689,2.689,0,0,1,311.125,186.829Zm.3,8.45h4.751v25h-4.751Z" style="fill:#fff"/><path d="M337.777,217.431a9.281,9.281,0,0,1-6.8,3.251c-4.1,0-7.5-2.2-7.5-7.3v-13.8h-3.55v-4.3h3.55v-8.15l4.75-.3v8.45h6.8v4.3h-6.8v12.5a3.891,3.891,0,0,0,3.7,4.2,4.094,4.094,0,0,0,3.7-2.6Z" style="fill:#fff"/><path d="M364.777,207.231l-20.251,3.65a7.781,7.781,0,0,0,7.45,5.3c4.5,0,7.851-3.149,8.6-5.3l4.051,1.3a13.9,13.9,0,0,1-12.651,8.4,13.256,13.256,0,0,1-12.251-8.851,12.506,12.506,0,0,1-.649-4.05,12.871,12.871,0,0,1,25.7-1.1A2.831,2.831,0,0,1,364.777,207.231Zm-5.4-2.8a8.2,8.2,0,0,0-7.95-5.4,7.946,7.946,0,0,0-7.5,7.2,8.869,8.869,0,0,1-.05.95Z" style="fill:#fff"/><path d="M368.526,207.781a12.86,12.86,0,0,1,23.951-6.55l-4.25,2.05a8.475,8.475,0,0,0-6.8-3.9,8.4,8.4,0,0,0,0,16.8,8.475,8.475,0,0,0,6.8-3.9l4.25,2.051a12.86,12.86,0,0,1-23.951-6.551Z" style="fill:#fff"/><path d="M413.375,217.431a9.281,9.281,0,0,1-6.8,3.251c-4.1,0-7.5-2.2-7.5-7.3v-13.8h-3.55v-4.3h3.55v-8.15l4.75-.3v8.45h6.8v4.3h-6.8v12.5a3.891,3.891,0,0,0,3.7,4.2,4.094,4.094,0,0,0,3.7-2.6Z" style="fill:#fff"/><path d="M416.574,216.181l3.15-2.75a11.337,11.337,0,0,0,7.251,3.051c3,0,5.1-1.1,5.1-3.1,0-3.851-15.551-3.05-15.551-11.2,0-4.149,3.15-7.3,9.6-7.3a14.257,14.257,0,0,1,10.351,4.45l-3.15,2.8a11.335,11.335,0,0,0-7.25-3.05c-3,0-5.1,1.1-5.1,3.1,0,3.851,15.551,3.051,15.551,11.2,0,4.15-3.149,7.3-9.65,7.3A14.158,14.158,0,0,1,416.574,216.181Z" style="fill:#fff"/><path d="M440.475,214.131h4.3l-3.1,8.65h-3.5Z" style="fill:#fff"/><path d="M301.877,94.73v33.552h-4.8l-16.6-26.1v26.1h-4.75V94.73h4.8l16.6,26.1V94.73Z" style="fill:#fff"/><path d="M306.226,115.781a12.9,12.9,0,1,1,12.9,12.9A12.9,12.9,0,0,1,306.226,115.781Zm21.2,0a8.154,8.154,0,1,0-8.15,8.4A8.161,8.161,0,0,0,327.427,115.781Z" style="fill:#fff"/><path d="M360.375,106.88h-4.55v21.4h-4.7v-21.4h-2.95v-3.7h2.95V96.03c0-3.2,1.75-5.351,4.6-5.351a12.839,12.839,0,0,1,4.4.75l-.95,3.6a8.3,8.3,0,0,0-1.8-.25c-1.2,0-1.55.65-1.55,2.75v5.65h4.55Z" style="fill:#fff"/><path d="M387.575,103.28v25h-4.751v-3.1a9.681,9.681,0,0,1-7.35,3.5c-6,0-10.3-4.851-10.3-11v-14.4h4.85v14.251a6.411,6.411,0,1,0,12.8-.05v-14.2Z" style="fill:#fff"/><path d="M392.824,124.181l3.15-2.75a11.337,11.337,0,0,0,7.251,3.051c3,0,5.1-1.1,5.1-3.1,0-3.851-15.551-3.05-15.551-11.2,0-4.149,3.15-7.3,9.6-7.3a14.257,14.257,0,0,1,10.351,4.45l-3.15,2.8a11.335,11.335,0,0,0-7.25-3.05c-3,0-5.1,1.1-5.1,3.1,0,3.851,15.551,3.051,15.551,11.2,0,4.15-3.149,7.3-9.65,7.3A14.158,14.158,0,0,1,392.824,124.181Z" style="fill:#fff"/><path d="M416.574,124.181l3.15-2.75a11.337,11.337,0,0,0,7.251,3.051c3,0,5.1-1.1,5.1-3.1,0-3.851-15.551-3.05-15.551-11.2,0-4.149,3.15-7.3,9.6-7.3a14.257,14.257,0,0,1,10.351,4.45l-3.15,2.8a11.335,11.335,0,0,0-7.25-3.05c-3,0-5.1,1.1-5.1,3.1,0,3.851,15.551,3.051,15.551,11.2,0,4.15-3.149,7.3-9.65,7.3A14.158,14.158,0,0,1,416.574,124.181Z" style="fill:#fff"/><path d="M440.475,122.131h4.3l-3.1,8.65h-3.5Z" style="fill:#fff"/><path d="M221.477,48.729V82.282h-4.8l-16.6-26.1v26.1h-4.75V48.729h4.8l16.6,26.1v-26.1Z" style="fill:#fff"/><path d="M225.825,69.781a12.9,12.9,0,1,1,12.9,12.9A12.9,12.9,0,0,1,225.825,69.781Zm21.2,0a8.154,8.154,0,1,0-8.151,8.4A8.16,8.16,0,0,0,247.027,69.781Z" style="fill:#fff"/><path d="M294.376,45.029V82.282h-4.75v-2.75a12.9,12.9,0,1,1,0-19.5v-15Zm-4.95,24.751a8.154,8.154,0,1,0-8.15,8.4A8.088,8.088,0,0,0,289.426,69.781Z" style="fill:#fff"/><path d="M317.126,57.93l-1.449,4.851a6.641,6.641,0,0,0-3.751-1.5c-3.65,0-6.4,2.9-6.4,6.8v14.2h-4.75v-25h4.75v3.1a9.868,9.868,0,0,1,7.4-3.5A8.581,8.581,0,0,1,317.126,57.93Z" style="fill:#fff"/><path d="M342.077,57.28l-13.3,35.1h-4.75l4.9-12.951-9.05-22.151h4.75l6.6,16.151,6.1-16.151Z" style="fill:#fff"/><path d="M384.078,57.28l-8.751,25h-4.75l-6.1-18.551-6.1,18.551h-4.751l-8.75-25h4.75l6.351,18.2,6.351-18.2h4.25l6.4,18.2,6.351-18.2Z" style="fill:#fff"/><path d="M411.228,57.28v25h-4.751v-2.75a12.9,12.9,0,1,1,0-19.5V57.28Zm-4.95,12.5a8.155,8.155,0,1,0-8.15,8.4A8.088,8.088,0,0,0,406.278,69.781Z" style="fill:#fff"/><path d="M417.627,45.029h4.75V82.282h-4.75Z" style="fill:#fff"/><path d="M428.527,45.029h4.75V82.282h-4.75Z" style="fill:#fff"/><path d="M440.476,76.131h4.3l-3.1,8.65h-3.5Z" style="fill:#fff"/><circle cx="541.245" cy="217.395" r="3.405" style="fill:#369bff"/><path d="M520.722,195.086a12.83,12.83,0,0,0-7.013,2.082V195.5h-6.4v37.2h6.4V218.808a12.9,12.9,0,1,0,7.013-23.722Zm0,19.1a6.2,6.2,0,1,1,6.2-6.2A6.2,6.2,0,0,1,520.722,214.187Z" style="fill:#fff"/><path d="M503.56,195.5l-13,34.553h-6.4l4.551-12.1L479.859,195.5h6.4l5.6,14.15,5.3-14.15Z" style="fill:#fff"/><path d="M477.96,217.9a10.157,10.157,0,0,1-7.051,3c-4.3,0-7.6-2.1-7.6-7.3V201.245h-3.05V195.5h3.05v-8.351l6.4-.149v8.5h5.9v5.75h-5.9v10.4c0,2.051,1.2,3.3,2.6,3.3a2.863,2.863,0,0,0,2.9-2.15Z" style="fill:#fff"/></svg>