<svg xmlns="http://www.w3.org/2000/svg" viewBox="0 0 761.207 435.345"><title>WordmarkTYP</title><circle cx="541.245" cy="217.395" r="3.405" style="fill:#333"/><path d="M520.722,195.086a12.83,12.83,0,0,0-7.013,2.082V195.5h-6.4v37.2h6.4V218.808a12.9,12.9,0,1,0,7.013-23.722Zm0,19.1a6.2,6.2,0,1,1,6.2-6.2A6.2,6.2,0,0,1,520.722,214.187Z" style="fill:#333"/><path d="M503.56,195.5l-13,34.553h-6.4l4.551-12.1L479.859,195.5h6.4l5.6,14.15,5.3-14.15Z" style="fill:#333"/><path d="M477.96,217.9a10.157,10.157,0,0,1-7.051,3c-4.3,0-7.6-2.1-7.6-7.3V201.245h-3.05V195.5h3.05v-8.351l6.4-.149v8.5h5.9v5.75h-5.9v10.4c0,2.051,1.2,3.3,2.6,3.3a2.863,2.863,0,0,0,2.9-2.15Z" style="fill:#333"/></svg>