<svg xmlns="http://www.w3.org/2000/svg" viewBox="0 0 761.207 435.345"><title>Wordmark1</title><path d="M221.477,48.729V82.282h-4.8l-16.6-26.1v26.1h-4.75V48.729h4.8l16.6,26.1v-26.1Z" style="fill:#333"/><path d="M225.825,69.781a12.9,12.9,0,1,1,12.9,12.9A12.9,12.9,0,0,1,225.825,69.781Zm21.2,0a8.154,8.154,0,1,0-8.151,8.4A8.16,8.16,0,0,0,247.027,69.781Z" style="fill:#333"/><path d="M294.376,45.029V82.282h-4.75v-2.75a12.9,12.9,0,1,1,0-19.5v-15Zm-4.95,24.751a8.154,8.154,0,1,0-8.15,8.4A8.088,8.088,0,0,0,289.426,69.781Z" style="fill:#333"/><path d="M317.126,57.93l-1.449,4.851a6.641,6.641,0,0,0-3.751-1.5c-3.65,0-6.4,2.9-6.4,6.8v14.2h-4.75v-25h4.75v3.1a9.868,9.868,0,0,1,7.4-3.5A8.581,8.581,0,0,1,317.126,57.93Z" style="fill:#333"/><path d="M342.077,57.28l-13.3,35.1h-4.75l4.9-12.951-9.05-22.151h4.75l6.6,16.151,6.1-16.151Z" style="fill:#333"/><path d="M384.078,57.28l-8.751,25h-4.75l-6.1-18.551-6.1,18.551h-4.751l-8.75-25h4.75l6.351,18.2,6.351-18.2h4.25l6.4,18.2,6.351-18.2Z" style="fill:#333"/><path d="M411.228,57.28v25h-4.751v-2.75a12.9,12.9,0,1,1,0-19.5V57.28Zm-4.95,12.5a8.155,8.155,0,1,0-8.15,8.4A8.088,8.088,0,0,0,406.278,69.781Z" style="fill:#333"/><path d="M417.627,45.029h4.75V82.282h-4.75Z" style="fill:#333"/><path d="M428.527,45.029h4.75V82.282h-4.75Z" style="fill:#333"/><path d="M440.476,76.131h4.3l-3.1,8.65h-3.5Z" style="fill:#333"/></svg>