<svg xmlns="http://www.w3.org/2000/svg" viewBox="0 0 594.6 281.6"><title>CarbonHistory</title><path d="M19.8,190.5V371" transform="translate(0.8 -104.3)" style="fill:none;stroke:#16161d;stroke-width:0.2px"/><path d="M165.9,190.5V371" transform="translate(0.8 -104.3)" style="fill:none;stroke:#16161d;stroke-width:0.2px"/><path d="M313.1,190.5V371" transform="translate(0.8 -104.3)" style="fill:none;stroke:#16161d;stroke-width:0.2px"/><path d="M459.1,190.5V371" transform="translate(0.8 -104.3)" style="fill:none;stroke:#16161d;stroke-width:0.2px"/><polyline points="0.8 220.3 1.8 222.8 2.2 221.9 3.2 216.3 3.6 212.2 4.6 203 4.8 207.8 5.5 206.8 5.9 196.9 6.6 191.2 6.9 194.2 7.4 186.4 7.8 183.3 8.4 165.7 8.6 165.5 9.1 157 9.5 153.8 10.1 158.5 10.3 160.5 10.9 163 11.3 166.6 11.9 161.6 12.8 167.3 13.2 164.9 13.8 170.6 14.1 165.1 14.8 169.5 15.2 167.7 15.8 167.4 16.1 167.2 16.7 169.5 17.2 174.4 17.9 172.8 18.3 176.2 18.9 179.7 19.4 182.9 20.1 182 20.3 183.3 20.7 175.5 20.9 177.5 21.1 175 21.3 177.5 21.5 181.4 21.8 186.7 22 184.7 22.3 191.1 22.6 190.2 23.3 194.7 23.7 198.7 24.4 196.6 24.7 195.5 25.4 190 25.8 188.5 26 191.1 26.2 187 26.5 197.3 26.8 196.3 27.4 200.1 27.8 205.8 28.5 205 28.8 203.2 29.4 197.4 29.7 194.5 30 194.8 30.2 197 30.4 193.2 30.7 197.3 31.2 201.4 31.6 205.9 32.2 209.8 32.4 211.2 33 215.7 33.3 219.8 34 215 34.3 223.2 34.9 221.2 35.3 224.9 35.9 227 36.1 226.3 36.7 228.1 37 229.5 37.6 230.5 37.9 230.1 38.3 230.1 38.7 227.9 39.3 230.7 40 228.9 40.3 229.7 40.9 230.5 41.2 229.2 41.7 228.7 42 232.9 42.6 234.1 42.8 232.2 43.3 231.9 43.6 226.1 44.2 213.8 44.4 211.4 44.8 205.4 45.1 201.5 45.5 200.8 45.7 203.9 46.1 202.3 46.4 207.7 46.9 210.4 47.1 210 47.5 204.6 47.8 206.6 48.3 207.4 48.5 207.9 49 206 49.3 208 49.9 207 50.1 207.7 50.6 207.8 51.6 206.5 51.9 206.8 52.5 206.4 52.9 207.3 53.5 203.9 53.8 205.3 54.5 205.6 54.9 201.8 55.6 199 55.9 198.8 56.7 200.8 57.2 205.6 57.9 216.3 58.3 223.4 59 226.7 59.6 218.5 60.3 206.9 60.6 203.9 61.3 190.4 61.7 194.7 62.3 190.8 62.7 190.3 63.4 193.9 64.4 193.7 64.7 193.5 65.3 192.3 65.7 192.7 68.1 184.7 68.3 184.2 68.8 184.3 69.1 179.1 69.7 181.7 69.9 181.7 70.3 180.2 70.6 180.6 71 182.6 71.2 183.5 71.6 184 71.9 184.6 72.2 185.2 72.5 184.1 72.8 186.7 73 185.2 73.4 185.1 73.6 186.3 74 184.8 74.2 181.9 74.5 180.7 74.7 180.6 75 180.1 75.2 177.7 75.5 178.3 75.7 178.4 76 175.6 76.2 176.4 76.5 176.2 76.7 177.3 76.9 178.6 77.1 177.7 77.4 178.9 77.6 178.9 77.9 178.3 78.1 180.1 78.4 177.2 78.6 177.6 78.9 176.5 79 177.5 79.4 179 79.5 173.3 79.9 178.3 80 177.5 80.4 173.4 80.6 177.3 80.9 178.2 81.1 177.3 81.4 180 81.6 180.7 81.9 184 82.1 184.1 82.5 185.4 82.7 188.3 83 188.2 83.2 189.1 83.6 192.7 83.8 192.9 84.2 193 84.4 194.9 84.8 194.9 85 193.7 85.4 191.2 85.6 190 86 192.7 86.3 195.1 86.7 196.1 87 194 87.3 187.7 87.6 189.6 87.9 182.6 88.2 182.1 88.7 182.9 88.9 186.2 89.3 195 89.5 196.7 89.9 198.2 90.2 195 90.6 192.5 91.4 198.5 91.7 202.8 92.2 209.4 92.5 212.9 93 216.7 93.3 218.9 93.8 216.8 94 218.8 94.6 221.9 94.9 225.6 95.5 232.3 95.8 235.1 96.5 238.9 96.9 237.9 97.5 232.3 97.9 232.6 98.6 225.3 99 222.1 99.7 222.2 100.1 223.4 100.8 221.4 101.3 224.5 102 227.1 102.4 228.6 103.1 222 103.5 220 104.3 212.9 104.7 213.2 105.5 218.2 106.1 220 106.8 225.8 107.3 225.3 108.2 219.3 108.7 223.4 109.6 216.7 110.1 219.2 111.1 220.8 111.7 222.6 112.7 216.8 113.2 217.3 114.3 220.9 114.9 221.1 116.1 222.1 116.8 223.5 118 217.1 118.9 218.4 119.9 217.5 120.6 219.2 121.9 215.9 122.5 212.1 123.7 211.8 124.4 212.9 125.4 206.9 126 197.4 126.7 185 127.2 178.7 127.8 175.8 128.9 174.6 130 170.4 131 168.1 132 165.7 133.1 161.4 134 161.4 135 161.3 135.9 157.9 136.7 156 137.6 154.4 138.5 156.3 139.4 154.8 140.3 159.2 141.2 165.1 142.2 168.9 143.2 174.1 144.2 175.3 145.3 180.5 146.3 183.4 146.7 186.7 147.4 193.4 147.8 196 148.4 195.9 148.9 191.3 149.4 180.1 149.8 175.2 150.4 175.1 150.7 179.8 151.2 183.4 151.5 187 152.6 175.8 153 169.8 153.3 165.5 153.8 163.5 154.1 167.2 154.6 174.4 154.9 178.6 155.5 186.7 155.8 188.6 158 201.5 158.3 205.2 158.8 202.2 159.1 196.9 159.4 193 159.7 187.5 160 182.6 160.2 176.9 160.5 169.6 160.7 169.3 160.9 162.2 161.4 160.9 161.8 164.5 162.2 162.6 162.5 162.4 162.9 162.4 163.3 160.9 163.6 161.3 164 164.7 164.3 161.6 164.6 161.8 165 161.9 165.3 164.9 165.6 164.4 165.9 165.9 166.2 167.2 166.5 163.4 166.8 162.1 167.1 164 167.4 161.9 167.7 161.9 168 162.4 168.3 163.7 168.6 162.4 168.9 163.5 169.2 160.8 169.5 161 169.7 159.9 170 160.6 170.3 159.3 170.6 159.9 170.9 159.5 171.1 160.1 171.4 162.3 171.7 161.2 172 161.4 172.3 162.3 172.6 166 172.9 167.7 173.2 167.8 173.5 171.1 173.8 173.2 174.2 178.9 174.5 178.4 174.8 181 175.2 181.3 175.5 184.5 175.9 182.6 176.3 182.7 176.5 183.1 176.7 178.5 177.1 175.1 177.4 172.9 177.5 167.9 177.8 163.2 178 169.4 178.2 164.5 178.3 170.4 178.5 172.3 178.9 179.1 179.3 186 179.8 188.3 180.3 189 180.8 192.2 181 190.4 181.4 186.4 181.6 190.3 182 190.8 182.6 192.6 183.2 197.1 183.9 198.6 184.2 203.2 184.6 209.3 185.4 207.2 186.3 202.3 187.1 202.4 187.9 201.8 188.8 203.9 189.7 208.2 190.5 206.9 191.4 200.9 192.2 199.3 193.1 205.5 193.9 206.9 194.7 212.2 195.5 211.8 195.9 220.8 196.3 217.6 196.6 216.4 197.1 211.7 197.3 207.4 197.7 200.7 198 197.7 198.3 191.8 198.9 192.2 199.5 191.3 200.1 189.9 200.6 187.9 201.2 185 201.7 182.6 202.3 179.3 202.8 177.3 203.3 176.3 203.7 171.4 205.1 169.9 205.6 168 206.1 165.9 206.5 168.2 207 168 207.5 167.3 208 166.3 208.5 170.4 209 171.8 209.5 174 210 175 210.6 171.3 211.1 177.9 211.7 176.7 212.3 179.6 212.8 173 213.4 176.1 213.9 175 214.4 177.1 215 177.6 215.5 179.1 216 178.9 216.5 180.7 217.1 180.9 217.6 181.7 218.2 182.1 218.7 184.6 219.3 182.1 219.8 182.3 220.4 180.2 220.9 176.6 221.5 176.7 222 175.6 222.6 174.7 223.2 174.9 223.8 174.1 224.3 173.5 224.9 169.7 225.5 166.8 226 170.1 226.5 170.8 226.7 164.3 227.1 161 227.3 172.4 227.6 171.3 228.1 176 228.7 181.6 229.2 180.1 229.8 180 230.4 181.7 231 181.5 231.6 181.5 232.2 185.4 232.9 189.2 233.6 188.8 234.3 193.6 234.6 191.7 235 181.6 235.3 176.6 235.7 174.1 236.4 176.5 237.1 180.2 237.9 179.9 238.7 172.1 239.4 167.9 239.7 169.5 240.2 169.7 240.5 180.3 241 183.6 241.3 193.7 241.8 196.8 242.2 205.4 242.7 206.4 243.7 208.4 244.7 207.4 245.7 203.9 246.7 202.1 247 206.7 247.7 211.8 248.7 217 249.7 220.6 250.8 216 251.7 209.4 252.6 203.7 253 208.5 253.5 207.5 253.9 212.5 254.4 218.9 255.2 218.1 256.1 213.2 257 209.8 257.8 207 258.6 210.5 259.5 210 260.3 203.9 261.1 208.3 262 210.6 263.2 212.5 264.1 209.7 265 210.4 265.8 210 266.7 211.4 267.5 204.5 268.3 202.3 269.1 204.4 269.4 200.6 270.3 185.5 270.9 192.7 272 170.9 272.2 165.4 272.7 161.6 273.1 158.6 273.4 148.9 273.7 144.5 274 143.7 274.3 146.1 274.8 146.7 275.6 143.9 276 147.9 276.4 145.8 277.3 140.8 277.6 143.3 278 140.9 278.8 140 279.2 142.7 279.6 141.2 280.3 142.8 280.6 138.3 281.2 142.9 281.9 149.4 282.7 139.8 284 131.5 284.7 132.4 285.3 139.5 285.8 130.5 286.9 129.5 287.5 135.2 288.5 134.4 289.1 138.2 290.1 139 290.7 131.9 291.8 131.8 292.3 137.6 293.5 138.4 296.1 153.4 296.8 141 297.6 154.5 298.1 148 299.5 163.6 300.9 158.7 302.3 154.8 302.8 149.6 303.4 155.9 304.8 167.7 305.9 166.7 307 174.1 308.1 173.3 309.3 185.7 312.1 183.2 313.3 188 314.5 197.5 315.6 211.8 316.8 209.8 318.9 205.6 320.7 210.5 322.3 225.3 323.6 225 324.8 218.4 327 202.8 328 202.6 328.9 196.1 329.9 191.4 331.6 192.2 332.7 200.2 333.6 207.1 334.7 206.7 335.7 211 336.5 163.6 337.9 178.8 338.4 173.6 339 171.4 339.4 158.2 339.8 144 340.2 136.2 340.5 129.3 340.8 136.7 341.2 117 341.5 126.8 341.6 126.1 341.9 132.6 342.3 141.5 342.8 142 343.2 142.8 343.7 149.3 344.6 139.6 345.1 142.6 345.5 144.4 346 148.2 346.4 150.2 347 148.1 347.5 153.6 348 153.8 348.6 153.7 349.1 156.7 350.4 164.4 351 158.1 351.7 179.6 352.3 168.3 352.9 162.1 353.4 142 353.9 166.7 354.4 156.8 354.9 157.2 355.4 162.1 356 171.4 356.6 174.2 357.2 175.4 357.8 179.8 358.4 186.5 358.9 185 359.8 186.9 360.5 168.7 361.1 165 361.7 163.5 362.2 172.6 362.9 173.1 363.6 177.1 364.2 174.2 364.9 177 365.5 181.9 366.2 188.2 366.8 195.2 368.2 199.1 369.2 199.5 369.8 205.2 370.3 205.9 370.8 204.4 371.6 195.2 372 192.1 372.4 178.2 373.9 181.9 374.4 182.5 374.7 181.5 375.4 186.3 375.9 184.8 377.1 181.6 378.6 188.9 379.7 197 380.4 201.1 381.1 207.3 381.8 209.5 382.6 218.2 383.3 213.2 384 217.3 384.8 217.5 385.5 220.9 386.3 226.3 387 212.8 387.8 217.2 388.5 223.9 389.1 222.5 389.9 200.4 390.4 211.8 391.2 184.7 392.4 197.6 393 203.1 393.8 206.2 394.2 202.4 395.5 207.9 396.6 207.8 397.2 209.8 397.8 212.6 399.1 216.1 399.8 214.8 400.4 216.1 401.1 198.3 401.7 211.5 403.5 197.5 405.1 193 405.6 182.5 405.9 176.4 406.3 163.8 406.6 161.4 406.9 150.5 407.4 134.7 407.6 135.8 408.1 151 408.4 154.3 409.1 161 409.5 166.2 409.8 167.7 410.2 167.9 410.7 174.1 411.1 170.3 411.5 166.2 412 171.9 412.4 161.6 412.9 168.3 415.6 171.7 416.1 179.1 416.9 180.6 418.1 188.1 418.6 179.9 418.8 178.5 419.4 177.6 420.1 196.6 420.6 208.5 422.3 206.3 423.2 203.2 423.7 204.8 424.4 196.2 424.9 198.1 426.4 172.8 427.1 168.2 427.5 162.6 427.8 162 428.1 166.1 428.5 170.8 428.7 173 429.1 171.9 429.7 162.5 430.5 170 430.9 156.6 431.2 173.7 431.5 166.6 431.8 161.7 431.9 166.3 432.3 169.5 432.5 168.8 432.8 171.1 433.2 172.8 433.4 182.9 433.9 175.9 434 175.1 434.4 181.5 434.8 183.4 435.1 186.4 435.6 184.2 435.9 180.7 436.3 181 436.6 169 437.5 166 438.4 174.1 439.1 162.8 441.2 170.8 441.5 172.1 442 186.3 443.1 192.5 443.5 186.2 445.4 194.4 446.4 192.2 446.8 181.5 448.1 181.6 449.6 201.4 451.5 208.4 452.9 211.9 453.6 213.5 454.3 194.7 455.1 199 456.4 204.3 457.8 221.2 458 221.8 458.5 221 459.3 215.5 460.7 213.9 462.4 213.8 464.4 214.9 464.9 227.2 465.4 224.4 466 221.2 466.4 219.7 467.7 215 467.9 207.5 470.7 223.7 471 225.6 471.6 222.2 473.9 211.1 475 222.3 475.1 219.4 475.8 208.8 478.3 214.6 480.7 220.9 481.5 215.1 481.6 215.9 482.5 215 482.8 219.1 483.6 221.1 483.7 217.2 484 218 484.2 217.1 484.7 210.6 484.7 215.7 485 209.4 485.1 211 485.2 210 485.4 213.6 485.7 213.6 485.8 211.3 485.9 207.3 486.4 208.1 486.5 203.1 487 201.5 487.3 192.2 487.3 188.7 487.7 189.1 488.3 183.9 488.5 172.9 488.6 168.5 489.7 155 489.8 156.1 490 150.8 490.2 150.1 490.4 132.4 490.6 128.3 490.7 128 490.8 140.6 491.1 139.1 491.3 139.4 491.6 151.6 491.8 151.7 492 147.2 492.2 140.9 492.9 137.6 493 141.6 493.1 135.1 493.4 148 493.7 147.7 493.8 145.7 494.6 138.3 495.1 142.4 496.1 137.2 496.6 149.1 497.1 142.6 497.8 140.9 498.5 146.8 499.4 151.7 500.4 141.4 500.8 140.1 501.2 152.7 501.8 148 502.8 157.2 504.3 162.5 505.5 167.9 505.9 175 507.4 182.3 508 176.2 508.9 184.7 510.2 176.2 510.9 182.1 511.6 186.9 515.6 180.9 517.9 184.5 518.5 188.4 520.3 204 521.6 195.3 522.4 198 523.2 184.8 523.7 176.7 524.3 172.2 525.7 182 527.4 190.8 528.2 195.2 531.1 183.7 532.6 185.4 536.4 216.6 537.1 219.9 538.6 216.2 542.4 201.7 542.9 190.8 546.3 220.9 547.6 196.6 548.3 202 548.9 222.8 550 221.9 552.8 202.9 557.2 202.9 559 206.6 562.6 219.6 563.3 222.7 565.6 219.7 567.9 222 568.5 226.6 568.6 225.4 568.9 225 569.1 226.3 569.2 224.6 569.4 224.2 569.6 223.4 569.8 216.5 569.9 223 570 223.2 570.2 221.3 570.3 222.4 570.5 222.5 570.8 222.9 570.8 219.1 570.8 221.8 571 222.6 571.2 224.1 571.5 222 571.6 222.7 571.8 222.7 571.9 220.3 572.1 217.5 572.3 216.3 572.4 210.9 572.6 208.9 572.7 204.3 572.8 204.5 573 198.2 573.1 193 573.2 191.6 573.3 191.5 573.5 190.5 573.6 188.1 573.7 187.5 573.8 186.6 574 184.4 574.1 184.3 574.4 174.1 574.5 174.6 574.6 174.6 574.7 174 574.8 176.7 574.9 175.6 575 175.3 575.1 175.8 575.3 174.9 575.4 178.8 575.5 175.6 575.6 175.7 575.7 173 575.8 170.2 575.9 166.9 575.9 168.2 576 168.2 576 163 576.1 162.6 576.1 163.9 576.1 163 576.2 160 576.2 159.9 576.3 158.5 576.3 153.3 576.4 155.2 576.4 149.1 576.4 151.2 576.5 150.2 576.5 149.7 576.5 150 576.6 150.1 576.6 149.8 576.7 149 576.7 149.3 576.7 149.4 576.8 149.4 576.9 146.8 577 149.2 577.1 148.3 577.1 147.4 577.2 146.9 577.3 149.4 577.4 148.6 577.4 150.8 577.5 150.2 577.6 150 577.6 149.8 577.8 150.4 577.8 151.2 577.9 153.2 578 153.5 578 149.1 578.1 150.4 578.2 150.5 578.3 152.1 578.3 154.7 578.4 153.7 578.5 153.2 578.5 155 578.6 152.3 578.7 153.4 578.8 152.8 578.8 155.7 578.9 154.7 579 154.4 579 153.3 579.1 154.8 579.2 154.3 579.2 153.7 579.3 154 579.4 155.6 579.5 153.4 579.5 151.2 579.6 151.8 579.7 156.4 579.8 155.9 579.8 151.3 579.9 152 580 154.6 580 153 580.1 152.9 580.2 151.5 580.2 151 580.3 148.8 580.4 147.6 580.5 153.4 580.5 148.8 580.6 148.4 580.7 146.8 580.7 149.1 580.8 149 580.9 146.8 580.9 144.7 581 145.8 581.1 145.1 581.2 143.8 581.3 143 581.3 144.7 581.4 145.3 581.4 143.4 581.6 143 581.6 141.8 581.7 142.9 581.7 142.8 581.8 139.8 581.9 139.3 581.9 143 582 141.6 582.1 141.2 582.2 139.7 582.2 140.6 582.3 141.5 582.4 138.4 582.5 140 582.5 138.4 582.6 139.9 582.7 139.4 582.7 135.9 582.8 140.7 582.9 136.9 583 137.2 583 138 583.1 138 583.2 137.8 583.3 136.8 583.3 136.1 583.4 135.9 583.5 134.9 583.5 135.6 583.6 137.4 583.7 136.1 583.8 137.1 583.8 135.7 583.9 138.1 583.9 135.3 583.9 135.2 583.9 135.1 583.9 135.1 583.9 135 583.9 134.9 583.9 134.7 583.9 134.6 583.9 134.4 583.9 134.2 583.9 134 584 133.8 584 133.6 584 133.4 584 133.2 584 133 584 132.8 584 132.7 584 132.5 584 132.3 584 132.1 584 132 584 131.8 584 131.7 584 131.5 584 131.4 584 131.3 584 131.2 584 131.1 584 131 584 131 584 130.9 584 130.9 584 130.9 584 131 584 131 584 131.1 584 131.2 584 131.4 584.1 131.6 584.1 131.8 584.1 132 584.1 132.2 584.1 132.5 584.1 132.7 584.1 132.7 584.1 132.9 584.1 133 584.1 133 584.1 133 584.1 132.9 584.1 132.8 584.1 132.7 584.1 132.7 584.1 132.5 584.1 132.4 584.1 132.2 584.1 132.1 584.1 132 584.1 131.9 584.1 131.8 584.1 131.7 584.1 131.7 584.1 131.8 584.1 131.9 584.1 132.1 584.2 132.3 584.2 132.6 584.2 132.8 584.2 133.1 584.2 133.4 584.2 133.7 584.2 133.9 584.2 134.2 584.2 134.4 584.2 134.5 584.2 134.6 584.2 134.6 584.2 134.6 584.2 134.5 584.2 134.4 584.2 134.3 584.2 134.2 584.2 134.1 584.2 134 584.2 134 584.2 134 584.2 134 584.2 134.1 584.2 134.2 584.2 134.3 584.2 134.3 584.2 134.3 584.3 134.1 584.3 133.9 584.3 133.6 584.3 133.3 584.3 133 584.3 132.7 584.3 132.5 584.3 132.3 584.3 132.1 584.3 131.9 584.3 131.8 584.3 131.8 584.3 131.8 584.3 131.9 584.3 132 584.3 132.2 584.3 132.4 584.3 132.7 584.3 133.1 584.3 133.7 584.3 134.4 584.3 135.1 584.3 136 584.3 136.8 584.3 137.6 584.3 138.3 584.3 138.9 584.3 139.2 584.4 139.4 584.4 139.4 584.4 139.3 584.4 139.1 584.4 138.8 584.4 138.6 584.4 138.4 584.4 138.3 584.4 138.2 584.4 138.2 584.4 138.2 584.4 138.3 584.4 138.3 584.4 138.3 584.4 138.3 584.4 138.2 584.4 138.1 584.4 138 584.4 137.9 584.4 137.8 584.4 137.7 584.4 137.7 584.4 137.7 584.4 137.7 584.4 137.8 584.4 137.8 584.4 137.8 584.5 137.7 584.5 137.5 584.5 137.2 584.5 136.8 584.5 136.2 584.5 135.5 584.5 134.8 584.5 134.1 584.5 133.3 584.5 132.7 584.5 132.1 584.5 131.6 584.5 131.2 584.5 131 584.5 130.8 584.5 130.7 584.5 130.6 584.5 130.7 584.5 130.9 584.5 131 584.5 131.2 584.5 131.3 584.5 131.5 584.5 131.6 584.5 131.6 584.5 131.6 584.5 131.6 584.5 131.5 584.5 131.4 584.5 131.3 584.5 131.1 584.5 130.9 584.5 130.8 584.5 130.6 584.5 130.4 584.5 130.3 584.5 130.2 584.5 130.1 584.5 130 584.5 129.8 584.5 129.7 584.5 129.5 584.5 129.4 584.5 129.2 584.5 129 584.5 128.9 584.5 128.7 584.5 128.6 584.5 128.5 584.5 128.3 584.5 128.2 584.5 128.1 584.5 128 584.5 127.9 584.5 127.8 584.5 127.7 584.5 127.5 584.5 127.3 584.5 127.1 584.5 126.8 584.5 126.5 584.5 126.2 584.5 125.8 584.5 125.5 584.5 125.1 584.5 124.6 584.5 124.1 584.5 123.6 584.5 123.2 584.5 122.8 584.5 122.4 584.6 122.1 584.6 121.8 584.6 121.6 584.6 121.4 584.6 121.2 584.6 121.1 584.6 120.9 584.6 120.8 584.6 120.7 584.6 120.7 584.6 120.6 584.6 120.5 584.6 120.3 584.6 120 584.6 119.7 584.6 119.4 584.6 119 584.6 118.7 584.6 118.3 584.6 118 584.6 117.5 584.6 117.1 584.6 116.7 584.6 116.3 584.6 115.9 584.6 115.6 584.6 115.3 584.6 114.9 584.6 114.6 584.6 114.3 584.6 114 584.6 113.6 584.6 113.4 584.6 113.1 584.6 112.8 584.6 112.4 584.6 112 584.6 111.7 584.6 111.3 584.6 110.9 584.6 110.5 584.6 110.1 584.6 109.6 584.6 109.1 584.6 108.7 584.6 108.3 584.6 107.8 584.6 107.4 584.6 107 584.6 106.6 584.6 106.3 584.6 106.1 584.6 105.9 584.6 105.8 584.6 105.7 584.6 105.7 584.6 105.8 584.6 105.9 584.6 106 584.6 106 584.6 106 584.6 105.9 584.6 105.8 584.6 105.6 584.6 105.4 584.6 105 584.6 104.6 584.6 104.2 584.6 103.8 584.6 103.2 584.6 102.6 584.6 102 584.6 101.4 584.6 100.3 584.6 99.4 584.6 98.7 584.6 97.9 584.6 97.4 584.6 96.8 584.6 96.4 584.6 95.1 584.6 94.4 584.6 93.5 584.6 92 584.6 91 584.6 90.4 584.6 89.3 584.6 87.2 584.6 86.7 584.6 85.8 584.6 84.9 584.6 83.2 584.6 81.7 584.6 80.3 584.6 78.5 584.6 77.2 584.6 75.9 584.6 74.3 584.6 72.8 584.6 71.4 584.6 70.1 584.6 68.4 584.6 66.2 584.6 64.7 584.6 63.4 584.6 62.3 584.6 61.5 584.6 60.8 584.6 59.2 584.6 57.3 584.6 55.6 584.6 54.5 584.6 51.6 584.6 50 584.6 48.9 584.6 47.4 584.6 45.3 584.6 42.9 584.6 41.2 584.6 39 584.6 37 584.6 35.2 584.6 33.5 584.6 31.7 584.6 29.4 584.6 27.7 584.6 25.6 584.6 23 584.6 21 584.6 19.8" style="fill:none;stroke:#007fff;stroke-linecap:round;stroke-linejoin:round;stroke-width:1.5px"/><polygon points="589.1 21.2 584.6 13.4 580.2 21.2 589.1 21.2" style="fill:#007fff"/><path d="M31.6,384H30.1l-.6-1.6H26.6L26,384H24.4l2.8-7.2h1.5ZM29,381.2l-1-2.7-1,2.7Z" transform="translate(0.8 -104.3)"/><path d="M34.8,378.8v1.1h-.9V382a5.2,5.2,0,0,0,0,.7v.2h.8v1.1l-1.1.2h-.7l-.4-.3a1.3,1.3,0,0,1-.2-.5,6.6,6.6,0,0,1,0-1v-2.3h-.6v-1.1h.6v-1l1.4-.8v1.8Z" transform="translate(0.8 -104.3)"/><path d="M35.6,378.8h1.3v.7a2,2,0,0,1,1.6-.8l.9.2a1.6,1.6,0,0,1,.6.6l.7-.6.8-.2,1,.2a1.4,1.4,0,0,1,.6.7,3,3,0,0,1,.1,1.1V384H41.9v-3a2.2,2.2,0,0,0-.1-1,.6.6,0,0,0-.6-.3l-.5.2a1,1,0,0,0-.4.5,3.7,3.7,0,0,0-.1,1.1V384H38.7v-2.8a3.9,3.9,0,0,0-.1-1l-.2-.3H38l-.6.2a.9.9,0,0,0-.4.5,3.7,3.7,0,0,0-.1,1.1V384H35.6Z" transform="translate(0.8 -104.3)"/><path d="M44.3,381.3a2.8,2.8,0,0,1,.3-1.3,2.3,2.3,0,0,1,1-1,2.8,2.8,0,0,1,1.4-.3,2.6,2.6,0,0,1,1.9.8,2.6,2.6,0,0,1,.8,1.9,2.7,2.7,0,0,1-.8,2,2.6,2.6,0,0,1-1.9.8,3,3,0,0,1-1.4-.3,2.2,2.2,0,0,1-1-.9A3.1,3.1,0,0,1,44.3,381.3Zm1.4.1a1.7,1.7,0,0,0,.4,1.2,1.2,1.2,0,0,0,1.8,0,1.7,1.7,0,0,0,.4-1.2,1.7,1.7,0,0,0-.4-1.2,1.2,1.2,0,0,0-1.8,0A1.7,1.7,0,0,0,45.7,381.4Z" transform="translate(0.8 -104.3)"/><path d="M50.2,382.5l1.4-.2a1,1,0,0,0,.4.6l.8.2.8-.2a.4.4,0,0,0,.2-.4.4.4,0,0,0-.1-.3l-.5-.2a7.4,7.4,0,0,1-2.1-.7,1.3,1.3,0,0,1-.6-1.2,1.4,1.4,0,0,1,.5-1.1,2.5,2.5,0,0,1,1.7-.5,2.9,2.9,0,0,1,1.6.3,1.8,1.8,0,0,1,.7,1l-1.3.2a.8.8,0,0,0-.3-.5l-.7-.2-.8.2a.3.3,0,0,0-.2.3v.2l1.3.4a3.8,3.8,0,0,1,1.5.6,1.3,1.3,0,0,1,.4,1,1.6,1.6,0,0,1-.6,1.2,2.6,2.6,0,0,1-1.8.5,2.9,2.9,0,0,1-1.7-.4A2,2,0,0,1,50.2,382.5Z" transform="translate(0.8 -104.3)"/><path d="M56.2,378.8h1.3v.8a1.9,1.9,0,0,1,.7-.6l.9-.2a2,2,0,0,1,1.5.7,2.9,2.9,0,0,1,.6,2,3,3,0,0,1-.6,2,2,2,0,0,1-1.5.7l-.8-.2-.7-.6V386H56.2Zm1.4,2.5a2,2,0,0,0,.3,1.3,1.1,1.1,0,0,0,.8.4,1,1,0,0,0,.8-.4,2,2,0,0,0,.3-1.3,1.9,1.9,0,0,0-.3-1.2,1,1,0,0,0-.8-.4,1.1,1.1,0,0,0-.8.4A1.7,1.7,0,0,0,57.6,381.3Z" transform="translate(0.8 -104.3)"/><path d="M63.7,376.8v2.6a2,2,0,0,1,1.6-.8l.9.2.6.4a1.6,1.6,0,0,1,.3.6,5.4,5.4,0,0,1,.1,1v3H65.7v-2.7a4.1,4.1,0,0,0-.1-1l-.3-.3h-.5l-.6.2a1,1,0,0,0-.4.5,3,3,0,0,0-.1,1V384H62.4v-7.2Z" transform="translate(0.8 -104.3)"/><path d="M71.5,382.3l1.4.2a2.2,2.2,0,0,1-.8,1.1,2.4,2.4,0,0,1-1.4.4,2.3,2.3,0,0,1-2-.9,3,3,0,0,1-.5-1.8,2.9,2.9,0,0,1,.7-2,2.2,2.2,0,0,1,1.7-.7,2.3,2.3,0,0,1,1.8.8,3.4,3.4,0,0,1,.6,2.3H69.5a1.4,1.4,0,0,0,.3,1,1,1,0,0,0,.8.3l.5-.2A1.1,1.1,0,0,0,71.5,382.3Zm.1-1.4a1.3,1.3,0,0,0-.3-.9.9.9,0,0,0-.7-.3,1,1,0,0,0-.7.3,1.3,1.3,0,0,0-.3.9Z" transform="translate(0.8 -104.3)"/><path d="M75.4,384H74v-5.2h1.3v.7l.6-.7.6-.2.9.3-.4,1.2-.6-.2-.5.2a1.1,1.1,0,0,0-.3.6,8.1,8.1,0,0,0-.1,1.7Z" transform="translate(0.8 -104.3)"/><path d="M77.9,378.1v-1.3h1.4v1.3Zm0,5.9v-5.2h1.4V384Z" transform="translate(0.8 -104.3)"/><path d="M85.2,380.3l-1.4.2a1,1,0,0,0-.3-.6l-.6-.2a1,1,0,0,0-.8.4,1.8,1.8,0,0,0-.3,1.2,2.1,2.1,0,0,0,.3,1.3,1,1,0,0,0,.8.4l.6-.2a1.3,1.3,0,0,0,.4-.8l1.3.2a2.4,2.4,0,0,1-.8,1.4,2.5,2.5,0,0,1-1.6.5,2.4,2.4,0,0,1-1.8-.7,3.3,3.3,0,0,1,0-4,2.4,2.4,0,0,1,1.8-.7,2.5,2.5,0,0,1,1.5.4A2.3,2.3,0,0,1,85.2,380.3Z" transform="translate(0.8 -104.3)"/><path d="M93.7,381.4l1.4.4a3.1,3.1,0,0,1-1.1,1.7,3.4,3.4,0,0,1-4.2-.4,3.7,3.7,0,0,1-.9-2.7,3.9,3.9,0,0,1,.9-2.8,3.2,3.2,0,0,1,2.4-1,3,3,0,0,1,2.1.8,2.8,2.8,0,0,1,.7,1.3l-1.4.3a1.5,1.5,0,0,0-1.5-1.2,1.6,1.6,0,0,0-1.3.6,2.8,2.8,0,0,0-.5,1.9,3,3,0,0,0,.5,1.9,1.6,1.6,0,0,0,1.3.6,1.4,1.4,0,0,0,1-.4A2.1,2.1,0,0,0,93.7,381.4Z" transform="translate(0.8 -104.3)"/><path d="M96,380.5a4.6,4.6,0,0,1,.3-1.8,3.4,3.4,0,0,1,.7-1l.9-.6a3.9,3.9,0,0,1,1.5-.3,3.4,3.4,0,0,1,2.5,1,4.4,4.4,0,0,1,0,5.4,3.8,3.8,0,0,1-5.1,0A3.7,3.7,0,0,1,96,380.5Zm1.5,0a2.7,2.7,0,0,0,.6,1.8,1.9,1.9,0,0,0,2.8,0,2.7,2.7,0,0,0,.6-1.9,2.7,2.7,0,0,0-.5-1.8,2,2,0,0,0-2.9,0A2.7,2.7,0,0,0,97.5,380.4Z" transform="translate(0.8 -104.3)"/><path d="M106.4,383.2v.8h-3a1.8,1.8,0,0,1,.3-.7l.9-.9.7-.6a.6.6,0,0,0,.2-.4.4.4,0,0,0-.1-.3h-.7a.7.7,0,0,0-.2.4h-.9a1.3,1.3,0,0,1,.4-.8,1.6,1.6,0,0,1,1.1-.3,1.5,1.5,0,0,1,1,.3,1,1,0,0,1,.4.7,1.2,1.2,0,0,1-.1.5l-.4.5-.7.5-.4.3Z" transform="translate(0.8 -104.3)"/><path d="M24.9,364.8v-.8h4.6v.7a9.8,9.8,0,0,0-1.4,1.9,11.8,11.8,0,0,0-1,2.5,9.2,9.2,0,0,0-.3,2h-.9a8.8,8.8,0,0,1,.3-2,10.7,10.7,0,0,1,.9-2.3,9.9,9.9,0,0,1,1.3-1.9Z" transform="translate(0.8 -104.3)"/><path d="M30.5,364.8v-.8h4.6v.7a9.8,9.8,0,0,0-1.4,1.9,11.8,11.8,0,0,0-1,2.5,9.2,9.2,0,0,0-.3,2h-.9a8.8,8.8,0,0,1,.3-2,10.7,10.7,0,0,1,.9-2.3,9.9,9.9,0,0,1,1.3-1.9Z" transform="translate(0.8 -104.3)"/><path d="M36,367.5a6.5,6.5,0,0,1,.3-2,2.5,2.5,0,0,1,.8-1.2,2,2,0,0,1,1.3-.4l1,.2a1.9,1.9,0,0,1,.7.7,3.6,3.6,0,0,1,.4,1.1,7.1,7.1,0,0,1,.2,1.7,6.6,6.6,0,0,1-.3,2,2.5,2.5,0,0,1-.8,1.2,2,2,0,0,1-1.3.4,2,2,0,0,1-1.6-.7A4.7,4.7,0,0,1,36,367.5Zm.9,0a4.5,4.5,0,0,0,.4,2.3,1.2,1.2,0,0,0,2,0,6.9,6.9,0,0,0,0-4.7,1.2,1.2,0,0,0-1-.6,1.1,1.1,0,0,0-1,.5A4.5,4.5,0,0,0,36.9,367.5Z" transform="translate(0.8 -104.3)"/><path d="M41.8,371v-7.2h.9v4.1l2.1-2.1h1.1l-2,1.9,2.2,3.3H45l-1.7-2.7-.6.6V371Z" transform="translate(0.8 -104.3)"/><path d="M49.5,373v-.8h1l.3-.3.3-.7V371l-2-5.2H50l1.1,3,.4,1.2.4-1.2,1.1-3h.9l-2,5.3-.5,1.2a1.7,1.7,0,0,1-.5.6l-.7.2Z" transform="translate(0.8 -104.3)"/><path d="M58.1,369.3H59a2.2,2.2,0,0,1-.8,1.2,2.7,2.7,0,0,1-3.3-.3,2.7,2.7,0,0,1-.7-2,2.9,2.9,0,0,1,.7-2,2.3,2.3,0,0,1,1.7-.7,2.2,2.2,0,0,1,1.7.7,2.8,2.8,0,0,1,.7,2v.2H55.2a2,2,0,0,0,.5,1.3,1.4,1.4,0,0,0,1.1.5l.8-.3A1.7,1.7,0,0,0,58.1,369.3Zm-2.9-1.4h2.9a1.8,1.8,0,0,0-.3-1,1.3,1.3,0,0,0-1.1-.5,1.4,1.4,0,0,0-1,.4A1.6,1.6,0,0,0,55.2,367.9Z" transform="translate(0.8 -104.3)"/><path d="M63.5,370.4l-.9.6-1,.2a1.9,1.9,0,0,1-1.3-.4,1.4,1.4,0,0,1-.5-1.1,1.4,1.4,0,0,1,.2-.7l.5-.5.6-.3h.8l1.6-.3v-.2a1,1,0,0,0-.2-.8,1.5,1.5,0,0,0-1-.3l-.9.2a1.3,1.3,0,0,0-.4.8H60a2.1,2.1,0,0,1,.4-.9,1.7,1.7,0,0,1,.8-.5l1.2-.2,1.1.2.6.4a1.4,1.4,0,0,1,.3.6,5,5,0,0,1,0,.8v1.2a12.4,12.4,0,0,0,.1,1.6,2,2,0,0,0,.2.6h-.9A1.9,1.9,0,0,1,63.5,370.4Zm-.1-2-1.4.3-.8.2-.3.3a.8.8,0,0,0,.1,1,1.1,1.1,0,0,0,.8.2l.9-.2a1.4,1.4,0,0,0,.6-.6,2.1,2.1,0,0,0,.1-.9Z" transform="translate(0.8 -104.3)"/><path d="M65.7,371v-5.2h.8v.8a2.1,2.1,0,0,1,.6-.7l.6-.2.9.3-.3.8-.6-.2-.5.2a.9.9,0,0,0-.3.5,3.4,3.4,0,0,0-.1,1V371Z" transform="translate(0.8 -104.3)"/><path d="M68.7,369.5h.9a1.2,1.2,0,0,0,.4.8,1.4,1.4,0,0,0,.9.3,1.4,1.4,0,0,0,.9-.2.7.7,0,0,0,.3-.6.5.5,0,0,0-.3-.5l-.9-.3-1.3-.4-.6-.5a1.3,1.3,0,0,1-.2-.7,1.3,1.3,0,0,1,.2-.6l.4-.5.6-.3h.8l1.1.2.7.5a1.9,1.9,0,0,1,.3.8h-.9a.9.9,0,0,0-.3-.6l-.8-.2-.9.2a.6.6,0,0,0-.3.5.5.5,0,0,0,.1.3l.3.2.8.2,1.3.4.6.5a1.3,1.3,0,0,1,.2.8,1.5,1.5,0,0,1-.3.8,1.7,1.7,0,0,1-.7.6l-1.1.2a2.4,2.4,0,0,1-1.5-.4A2,2,0,0,1,68.7,369.5Z" transform="translate(0.8 -104.3)"/><path d="M80.2,370.4l-.9.6-1,.2a1.9,1.9,0,0,1-1.3-.4,1.4,1.4,0,0,1-.5-1.1,1.4,1.4,0,0,1,.2-.7l.5-.5.6-.3h.8l1.6-.3v-.2a1,1,0,0,0-.2-.8,1.5,1.5,0,0,0-1-.3l-.9.2a1.3,1.3,0,0,0-.4.8h-.9a2.1,2.1,0,0,1,.4-.9,1.7,1.7,0,0,1,.8-.5l1.2-.2,1.1.2.6.4a1.4,1.4,0,0,1,.3.6,5,5,0,0,1,0,.8v1.2a12.4,12.4,0,0,0,.1,1.6,2,2,0,0,0,.2.6h-.9A1.9,1.9,0,0,1,80.2,370.4Zm-.1-2-1.4.3-.8.2-.3.3a.8.8,0,0,0,.1,1,1.1,1.1,0,0,0,.8.2l.9-.2a1.4,1.4,0,0,0,.6-.6,2.1,2.1,0,0,0,.1-.9Z" transform="translate(0.8 -104.3)"/><path d="M82.2,371.4h.9a.8.8,0,0,0,.3.6,1.5,1.5,0,0,0,.9.2,1.6,1.6,0,0,0,.9-.2,1.2,1.2,0,0,0,.4-.7,5.6,5.6,0,0,0,.1-1.1,1.8,1.8,0,0,1-1.4.7,2,2,0,0,1-1.7-.8,3,3,0,0,1-.6-1.9,3.4,3.4,0,0,1,.3-1.4,2.1,2.1,0,0,1,.8-1,2.1,2.1,0,0,1,1.2-.3,1.9,1.9,0,0,1,1.5.7v-.6h.8v4.5a4.3,4.3,0,0,1-.2,1.7,1.8,1.8,0,0,1-.8.8,2.7,2.7,0,0,1-1.3.3,2.5,2.5,0,0,1-1.5-.4A1.4,1.4,0,0,1,82.2,371.4Zm.7-3.1a2.2,2.2,0,0,0,.4,1.5,1.3,1.3,0,0,0,2,0,2.2,2.2,0,0,0,.4-1.5,2.1,2.1,0,0,0-.4-1.4,1.3,1.3,0,0,0-1-.5,1.3,1.3,0,0,0-1,.5A2.1,2.1,0,0,0,82.9,368.3Z" transform="translate(0.8 -104.3)"/><path d="M87.6,368.4a2.7,2.7,0,0,1,.8-2.1,2.4,2.4,0,0,1,1.6-.6,2.3,2.3,0,0,1,1.7.7,2.7,2.7,0,0,1,.7,1.9,3.4,3.4,0,0,1-.3,1.6,2.1,2.1,0,0,1-.9.9,2.5,2.5,0,0,1-1.3.3,2.3,2.3,0,0,1-1.8-.7A2.8,2.8,0,0,1,87.6,368.4Zm.9,0a2.2,2.2,0,0,0,.4,1.5,1.4,1.4,0,0,0,2.2,0,2.3,2.3,0,0,0,.4-1.5,2.1,2.1,0,0,0-.4-1.5,1.4,1.4,0,0,0-2.2,0A2.2,2.2,0,0,0,88.5,368.4Z" transform="translate(0.8 -104.3)"/><path d="M170.9,369.1h.9a1.7,1.7,0,0,0,.5,1,1.3,1.3,0,0,0,.9.3,1.4,1.4,0,0,0,1.1-.5,1.8,1.8,0,0,0,.4-1.3,1.6,1.6,0,0,0-.4-1.2,1.5,1.5,0,0,0-1.1-.4l-.8.2-.5.5H171l.7-3.7h3.6v.8h-2.9l-.4,1.9a2.3,2.3,0,0,1,1.4-.4,2.1,2.1,0,0,1,1.6.6,2.3,2.3,0,0,1,.6,1.7,2.6,2.6,0,0,1-.6,1.7,2.3,2.3,0,0,1-1.9.9,2.3,2.3,0,0,1-1.6-.5A2.1,2.1,0,0,1,170.9,369.1Z" transform="translate(0.8 -104.3)"/><path d="M176.5,364.8v-.8h4.6v.7a9.8,9.8,0,0,0-1.4,1.9,11.8,11.8,0,0,0-1,2.5,9.2,9.2,0,0,0-.3,2h-.9a8.8,8.8,0,0,1,.3-2,10.7,10.7,0,0,1,.9-2.3,9.9,9.9,0,0,1,1.3-1.9Z" transform="translate(0.8 -104.3)"/><path d="M182,367.5a6.5,6.5,0,0,1,.3-2,2.5,2.5,0,0,1,.8-1.2,2,2,0,0,1,1.3-.4l1,.2a1.9,1.9,0,0,1,.7.7,3.6,3.6,0,0,1,.4,1.1,7.1,7.1,0,0,1,.2,1.7,6.6,6.6,0,0,1-.3,2,2.5,2.5,0,0,1-.8,1.2,2,2,0,0,1-1.3.4,2,2,0,0,1-1.6-.7A4.7,4.7,0,0,1,182,367.5Zm.9,0a4.5,4.5,0,0,0,.4,2.3,1.2,1.2,0,0,0,2,0,6.9,6.9,0,0,0,0-4.7,1.2,1.2,0,0,0-1-.6,1.1,1.1,0,0,0-1,.5A4.5,4.5,0,0,0,182.9,367.5Z" transform="translate(0.8 -104.3)"/><path d="M187.8,371v-7.2h.9v4.1l2.1-2.1h1.1l-2,1.9,2.2,3.3H191l-1.7-2.7-.6.6V371Z" transform="translate(0.8 -104.3)"/><path d="M195.5,373v-.8h1l.3-.3.3-.7V371l-2-5.2h.9l1.1,3,.4,1.2.4-1.2,1.1-3h.9l-2,5.3-.5,1.2a1.7,1.7,0,0,1-.5.6l-.7.2Z" transform="translate(0.8 -104.3)"/><path d="M204.1,369.3h.9a2.2,2.2,0,0,1-.8,1.2,2.7,2.7,0,0,1-3.3-.3,2.7,2.7,0,0,1-.7-2,2.9,2.9,0,0,1,.7-2,2.3,2.3,0,0,1,1.7-.7,2.2,2.2,0,0,1,1.7.7,2.8,2.8,0,0,1,.7,2v.2h-3.9a2,2,0,0,0,.5,1.3,1.4,1.4,0,0,0,1.1.5l.8-.3A1.7,1.7,0,0,0,204.1,369.3Zm-2.9-1.4h2.9a1.8,1.8,0,0,0-.3-1,1.3,1.3,0,0,0-1.1-.5,1.4,1.4,0,0,0-1,.4A1.6,1.6,0,0,0,201.2,367.9Z" transform="translate(0.8 -104.3)"/><path d="M209.5,370.4l-.9.6-1,.2a1.9,1.9,0,0,1-1.3-.4,1.4,1.4,0,0,1-.5-1.1,1.4,1.4,0,0,1,.2-.7l.5-.5.6-.3h.8l1.6-.3v-.2a1,1,0,0,0-.2-.8,1.5,1.5,0,0,0-1-.3l-.9.2a1.3,1.3,0,0,0-.4.8H206a2.1,2.1,0,0,1,.4-.9,1.7,1.7,0,0,1,.8-.5l1.2-.2,1.1.2.6.4a1.4,1.4,0,0,1,.3.6,5,5,0,0,1,0,.8v1.2a12.4,12.4,0,0,0,.1,1.6,2,2,0,0,0,.2.6h-.9A1.9,1.9,0,0,1,209.5,370.4Zm-.1-2-1.4.3-.8.2-.3.3a.8.8,0,0,0,.1,1,1.1,1.1,0,0,0,.8.2l.9-.2a1.4,1.4,0,0,0,.6-.6,2.1,2.1,0,0,0,.1-.9Z" transform="translate(0.8 -104.3)"/><path d="M211.7,371v-5.2h.8v.8a2.1,2.1,0,0,1,.6-.7l.6-.2.9.3-.3.8-.6-.2-.5.2a.9.9,0,0,0-.3.5,3.4,3.4,0,0,0-.1,1V371Z" transform="translate(0.8 -104.3)"/><path d="M214.7,369.5h.9a1.2,1.2,0,0,0,.4.8,1.4,1.4,0,0,0,.9.3,1.4,1.4,0,0,0,.9-.2.7.7,0,0,0,.3-.6.5.5,0,0,0-.3-.5l-.9-.3-1.3-.4-.6-.5a1.3,1.3,0,0,1-.2-.7,1.3,1.3,0,0,1,.2-.6l.4-.5.6-.3h.8l1.1.2.7.5a1.9,1.9,0,0,1,.3.8h-.9a.9.9,0,0,0-.3-.6l-.8-.2-.9.2a.6.6,0,0,0-.3.5.5.5,0,0,0,.1.3l.3.2.8.2,1.3.4.6.5a1.3,1.3,0,0,1,.2.8,1.5,1.5,0,0,1-.3.8,1.7,1.7,0,0,1-.7.6l-1.1.2a2.4,2.4,0,0,1-1.5-.4A2,2,0,0,1,214.7,369.5Z" transform="translate(0.8 -104.3)"/><path d="M226.2,370.4l-.9.6-1,.2a1.9,1.9,0,0,1-1.3-.4,1.4,1.4,0,0,1-.5-1.1,1.4,1.4,0,0,1,.2-.7l.5-.5.6-.3h.8l1.6-.3v-.2a1,1,0,0,0-.2-.8,1.5,1.5,0,0,0-1-.3l-.9.2a1.3,1.3,0,0,0-.4.8h-.9a2.1,2.1,0,0,1,.4-.9,1.7,1.7,0,0,1,.8-.5l1.2-.2,1.1.2.6.4a1.4,1.4,0,0,1,.3.6,5,5,0,0,1,0,.8v1.2a12.4,12.4,0,0,0,.1,1.6,2,2,0,0,0,.2.6h-.9A1.9,1.9,0,0,1,226.2,370.4Zm-.1-2-1.4.3-.8.2-.3.3a.8.8,0,0,0,.1,1,1.1,1.1,0,0,0,.8.2l.9-.2a1.4,1.4,0,0,0,.6-.6,2.1,2.1,0,0,0,.1-.9Z" transform="translate(0.8 -104.3)"/><path d="M228.2,371.4h.9a.8.8,0,0,0,.3.6,1.5,1.5,0,0,0,.9.2,1.6,1.6,0,0,0,.9-.2,1.2,1.2,0,0,0,.4-.7,5.6,5.6,0,0,0,.1-1.1,1.8,1.8,0,0,1-1.4.7,2,2,0,0,1-1.7-.8,3,3,0,0,1-.6-1.9,3.4,3.4,0,0,1,.3-1.4,2.1,2.1,0,0,1,.8-1,2.1,2.1,0,0,1,1.2-.3,1.9,1.9,0,0,1,1.5.7v-.6h.8v4.5a4.3,4.3,0,0,1-.2,1.7,1.8,1.8,0,0,1-.8.8,2.7,2.7,0,0,1-1.3.3,2.5,2.5,0,0,1-1.5-.4A1.4,1.4,0,0,1,228.2,371.4Zm.7-3.1a2.2,2.2,0,0,0,.4,1.5,1.3,1.3,0,0,0,2,0,2.2,2.2,0,0,0,.4-1.5,2.1,2.1,0,0,0-.4-1.4,1.3,1.3,0,0,0-1-.5,1.3,1.3,0,0,0-1,.5A2.1,2.1,0,0,0,228.9,368.3Z" transform="translate(0.8 -104.3)"/><path d="M233.6,368.4a2.7,2.7,0,0,1,.8-2.1,2.4,2.4,0,0,1,1.6-.6,2.3,2.3,0,0,1,1.7.7,2.7,2.7,0,0,1,.7,1.9,3.4,3.4,0,0,1-.3,1.6,2.1,2.1,0,0,1-.9.9,2.5,2.5,0,0,1-1.3.3,2.3,2.3,0,0,1-1.8-.7A2.8,2.8,0,0,1,233.6,368.4Zm.9,0a2.2,2.2,0,0,0,.4,1.5,1.4,1.4,0,0,0,2.2,0,2.3,2.3,0,0,0,.4-1.5,2.1,2.1,0,0,0-.4-1.5,1.4,1.4,0,0,0-2.2,0A2.2,2.2,0,0,0,234.5,368.4Z" transform="translate(0.8 -104.3)"/><path d="M317.9,369.1h.9a1.9,1.9,0,0,0,.5,1.1,1.3,1.3,0,0,0,.9.3,1.4,1.4,0,0,0,1-.4,1.4,1.4,0,0,0,.4-1.1,1.3,1.3,0,0,0-.4-1,1.4,1.4,0,0,0-1-.4h-.6v-.8h.1a1.8,1.8,0,0,0,1-.3,1,1,0,0,0,.4-.9,1.1,1.1,0,0,0-.3-.8,1.2,1.2,0,0,0-.8-.3,1.2,1.2,0,0,0-.9.3,1.6,1.6,0,0,0-.4,1l-.9-.2a2.3,2.3,0,0,1,.7-1.4,2.1,2.1,0,0,1,1.4-.5l1.1.3a1.8,1.8,0,0,1,.8.7,1.8,1.8,0,0,1,.3.9,1.5,1.5,0,0,1-.2.8,1.7,1.7,0,0,1-.7.6,1.7,1.7,0,0,1,1,.6,1.8,1.8,0,0,1,.4,1.2,2.1,2.1,0,0,1-.7,1.6,2.4,2.4,0,0,1-1.7.7,2.2,2.2,0,0,1-1.6-.6A2.2,2.2,0,0,1,317.9,369.1Z" transform="translate(0.8 -104.3)"/><path d="M323.5,364.8v-.8h4.6v.7a9.8,9.8,0,0,0-1.4,1.9,11.8,11.8,0,0,0-1,2.5,9.2,9.2,0,0,0-.3,2h-.9a8.8,8.8,0,0,1,.3-2,10.7,10.7,0,0,1,.9-2.3,9.9,9.9,0,0,1,1.3-1.9Z" transform="translate(0.8 -104.3)"/><path d="M329,367.5a6.5,6.5,0,0,1,.3-2,2.5,2.5,0,0,1,.8-1.2,2,2,0,0,1,1.3-.4l1,.2a1.9,1.9,0,0,1,.7.7,3.6,3.6,0,0,1,.4,1.1,7.1,7.1,0,0,1,.2,1.7,6.6,6.6,0,0,1-.3,2,2.5,2.5,0,0,1-.8,1.2,2,2,0,0,1-1.3.4,2,2,0,0,1-1.6-.7A4.7,4.7,0,0,1,329,367.5Zm.9,0a4.5,4.5,0,0,0,.4,2.3,1.2,1.2,0,0,0,2,0,6.9,6.9,0,0,0,0-4.7,1.2,1.2,0,0,0-1-.6,1.1,1.1,0,0,0-1,.5A4.5,4.5,0,0,0,329.9,367.5Z" transform="translate(0.8 -104.3)"/><path d="M334.8,371v-7.2h.9v4.1l2.1-2.1h1.1l-2,1.9,2.2,3.3H338l-1.7-2.7-.6.6V371Z" transform="translate(0.8 -104.3)"/><path d="M342.5,373v-.8h1l.3-.3.3-.7V371l-2-5.2h.9l1.1,3,.4,1.2.4-1.2,1.1-3h.9l-2,5.3-.5,1.2a1.7,1.7,0,0,1-.5.6l-.7.2Z" transform="translate(0.8 -104.3)"/><path d="M351.1,369.3h.9a2.2,2.2,0,0,1-.8,1.2,2.7,2.7,0,0,1-3.3-.3,2.7,2.7,0,0,1-.7-2,2.9,2.9,0,0,1,.7-2,2.3,2.3,0,0,1,1.7-.7,2.2,2.2,0,0,1,1.7.7,2.8,2.8,0,0,1,.7,2v.2h-3.9a2,2,0,0,0,.5,1.3,1.4,1.4,0,0,0,1.1.5l.8-.3A1.7,1.7,0,0,0,351.1,369.3Zm-2.9-1.4h2.9a1.8,1.8,0,0,0-.3-1,1.3,1.3,0,0,0-1.1-.5,1.4,1.4,0,0,0-1,.4A1.6,1.6,0,0,0,348.2,367.9Z" transform="translate(0.8 -104.3)"/><path d="M356.5,370.4l-.9.6-1,.2a1.9,1.9,0,0,1-1.3-.4,1.4,1.4,0,0,1-.5-1.1,1.4,1.4,0,0,1,.2-.7l.5-.5.6-.3h.8l1.6-.3v-.2a1,1,0,0,0-.2-.8,1.5,1.5,0,0,0-1-.3l-.9.2a1.3,1.3,0,0,0-.4.8H353a2.1,2.1,0,0,1,.4-.9,1.7,1.7,0,0,1,.8-.5l1.2-.2,1.1.2.6.4a1.4,1.4,0,0,1,.3.6,5,5,0,0,1,0,.8v1.2a12.6,12.6,0,0,0,.1,1.6,2,2,0,0,0,.2.6h-.9A1.8,1.8,0,0,1,356.5,370.4Zm-.1-2-1.4.3-.8.2-.3.3a.8.8,0,0,0,.1,1,1.1,1.1,0,0,0,.8.2l.9-.2a1.4,1.4,0,0,0,.6-.6,2.1,2.1,0,0,0,.1-.9Z" transform="translate(0.8 -104.3)"/><path d="M358.7,371v-5.2h.8v.8a2.2,2.2,0,0,1,.6-.7l.6-.2.9.3-.3.8-.6-.2-.5.2a.9.9,0,0,0-.3.5,3.4,3.4,0,0,0-.1,1V371Z" transform="translate(0.8 -104.3)"/><path d="M361.7,369.5h.9a1.2,1.2,0,0,0,.4.8,1.4,1.4,0,0,0,.9.3,1.4,1.4,0,0,0,.9-.2.7.7,0,0,0,.3-.6.5.5,0,0,0-.3-.5l-.9-.3-1.3-.4-.6-.5a1.3,1.3,0,0,1-.2-.7,1.3,1.3,0,0,1,.2-.6l.4-.5.6-.3h.8l1.1.2.7.5a1.9,1.9,0,0,1,.3.8h-.9a.9.9,0,0,0-.3-.6l-.8-.2-.9.2a.6.6,0,0,0-.3.5.5.5,0,0,0,.1.3l.3.2.8.2,1.3.4.6.5a1.3,1.3,0,0,1,.2.8,1.5,1.5,0,0,1-.3.8,1.7,1.7,0,0,1-.7.6l-1.1.2a2.4,2.4,0,0,1-1.5-.4A2,2,0,0,1,361.7,369.5Z" transform="translate(0.8 -104.3)"/><path d="M373.2,370.4l-.9.6-1,.2a1.9,1.9,0,0,1-1.3-.4,1.4,1.4,0,0,1-.5-1.1,1.4,1.4,0,0,1,.2-.7l.5-.5.6-.3h.8l1.6-.3v-.2a1,1,0,0,0-.2-.8,1.5,1.5,0,0,0-1-.3l-.9.2a1.3,1.3,0,0,0-.4.8h-.9a2.1,2.1,0,0,1,.4-.9,1.7,1.7,0,0,1,.8-.5l1.2-.2,1.1.2.6.4a1.4,1.4,0,0,1,.3.6,5,5,0,0,1,0,.8v1.2a12.6,12.6,0,0,0,.1,1.6,2,2,0,0,0,.2.6h-.9A1.8,1.8,0,0,1,373.2,370.4Zm-.1-2-1.4.3-.8.2-.3.3a.8.8,0,0,0,.1,1,1.1,1.1,0,0,0,.8.2l.9-.2a1.4,1.4,0,0,0,.6-.6,2.1,2.1,0,0,0,.1-.9Z" transform="translate(0.8 -104.3)"/><path d="M375.2,371.4h.9a.8.8,0,0,0,.3.6,1.5,1.5,0,0,0,.9.2,1.6,1.6,0,0,0,.9-.2,1.2,1.2,0,0,0,.4-.7,5.6,5.6,0,0,0,.1-1.1,1.8,1.8,0,0,1-1.4.7,2,2,0,0,1-1.7-.8,3,3,0,0,1-.6-1.9,3.4,3.4,0,0,1,.3-1.4,2.1,2.1,0,0,1,.8-1,2.1,2.1,0,0,1,1.2-.3,1.9,1.9,0,0,1,1.5.7v-.6h.8v4.5a4.2,4.2,0,0,1-.2,1.7,1.8,1.8,0,0,1-.8.8,2.7,2.7,0,0,1-1.3.3,2.5,2.5,0,0,1-1.5-.4A1.4,1.4,0,0,1,375.2,371.4Zm.7-3.1a2.2,2.2,0,0,0,.4,1.5,1.3,1.3,0,0,0,2,0,2.2,2.2,0,0,0,.4-1.5,2.1,2.1,0,0,0-.4-1.4,1.3,1.3,0,0,0-1-.5,1.3,1.3,0,0,0-1,.5A2.1,2.1,0,0,0,375.9,368.3Z" transform="translate(0.8 -104.3)"/><path d="M380.6,368.4a2.7,2.7,0,0,1,.8-2.1,2.4,2.4,0,0,1,1.6-.6,2.3,2.3,0,0,1,1.7.7,2.7,2.7,0,0,1,.7,1.9,3.4,3.4,0,0,1-.3,1.6,2.1,2.1,0,0,1-.9.9,2.5,2.5,0,0,1-1.3.3,2.3,2.3,0,0,1-1.8-.7A2.8,2.8,0,0,1,380.6,368.4Zm.9,0a2.2,2.2,0,0,0,.4,1.5,1.4,1.4,0,0,0,2.2,0,2.3,2.3,0,0,0,.4-1.5,2.1,2.1,0,0,0-.4-1.5,1.4,1.4,0,0,0-2.2,0A2.2,2.2,0,0,0,381.5,368.4Z" transform="translate(0.8 -104.3)"/><path d="M465.7,371h-.9v-5.6l-.8.6-.9.5v-.8l1.3-.8a3.3,3.3,0,0,0,.8-1h.6Z" transform="translate(0.8 -104.3)"/><path d="M468,364.8v-.8h4.6v.7a9.8,9.8,0,0,0-1.4,1.9,11.8,11.8,0,0,0-1,2.5,9.2,9.2,0,0,0-.3,2H469a8.8,8.8,0,0,1,.3-2,10.7,10.7,0,0,1,.9-2.3,9.9,9.9,0,0,1,1.3-1.9Z" transform="translate(0.8 -104.3)"/><path d="M473.5,367.5a6.6,6.6,0,0,1,.3-2,2.6,2.6,0,0,1,.8-1.2,2,2,0,0,1,1.3-.4l1,.2a1.9,1.9,0,0,1,.7.7,3.6,3.6,0,0,1,.4,1.1,7.1,7.1,0,0,1,.2,1.7,6.6,6.6,0,0,1-.3,2,2.5,2.5,0,0,1-.8,1.2,2,2,0,0,1-1.3.4,2,2,0,0,1-1.6-.7A4.7,4.7,0,0,1,473.5,367.5Zm.9,0a4.5,4.5,0,0,0,.4,2.3,1.2,1.2,0,0,0,2,0,6.9,6.9,0,0,0,0-4.7,1.2,1.2,0,0,0-1-.6,1.1,1.1,0,0,0-1,.5A4.5,4.5,0,0,0,474.4,367.5Z" transform="translate(0.8 -104.3)"/><path d="M479.3,371v-7.2h.9v4.1l2.1-2.1h1.1l-2,1.9,2.2,3.3h-1.1l-1.7-2.7-.6.6V371Z" transform="translate(0.8 -104.3)"/><path d="M487,373v-.8h1l.3-.3.3-.7V371l-2-5.2h.9l1.1,3,.4,1.2.4-1.2,1.1-3h.9l-2,5.3-.5,1.2a1.7,1.7,0,0,1-.5.6l-.7.2Z" transform="translate(0.8 -104.3)"/><path d="M495.6,369.3h.9a2.2,2.2,0,0,1-.8,1.2,2.7,2.7,0,0,1-3.3-.3,2.7,2.7,0,0,1-.7-2,2.9,2.9,0,0,1,.7-2,2.3,2.3,0,0,1,1.7-.7,2.2,2.2,0,0,1,1.7.7,2.8,2.8,0,0,1,.7,2v.2h-3.9a2,2,0,0,0,.5,1.3,1.4,1.4,0,0,0,1.1.5l.8-.3A1.7,1.7,0,0,0,495.6,369.3Zm-2.9-1.4h2.9a1.8,1.8,0,0,0-.3-1,1.4,1.4,0,0,0-1.1-.5,1.4,1.4,0,0,0-1,.4A1.6,1.6,0,0,0,492.7,367.9Z" transform="translate(0.8 -104.3)"/><path d="M501,370.4l-.9.6-1,.2a1.9,1.9,0,0,1-1.3-.4,1.4,1.4,0,0,1-.5-1.1,1.4,1.4,0,0,1,.2-.7l.5-.5.6-.3h.8l1.6-.3v-.2a1,1,0,0,0-.2-.8,1.5,1.5,0,0,0-1-.3l-.9.2a1.3,1.3,0,0,0-.4.8h-.9a2.1,2.1,0,0,1,.4-.9,1.7,1.7,0,0,1,.8-.5l1.2-.2,1.1.2.6.4a1.4,1.4,0,0,1,.3.6,5,5,0,0,1,0,.8v1.2a12.6,12.6,0,0,0,.1,1.6,2,2,0,0,0,.2.6h-.9A1.8,1.8,0,0,1,501,370.4Zm-.1-2-1.4.3-.8.2-.3.3a.8.8,0,0,0,.1,1,1.1,1.1,0,0,0,.8.2l.9-.2a1.4,1.4,0,0,0,.6-.6,2.1,2.1,0,0,0,.1-.9Z" transform="translate(0.8 -104.3)"/><path d="M503.2,371v-5.2h.8v.8a2.1,2.1,0,0,1,.6-.7l.6-.2.9.3-.3.8-.6-.2-.5.2a.9.9,0,0,0-.3.5,3.4,3.4,0,0,0-.1,1V371Z" transform="translate(0.8 -104.3)"/><path d="M506.2,369.5h.9a1.2,1.2,0,0,0,.4.8,1.4,1.4,0,0,0,.9.3,1.4,1.4,0,0,0,.9-.2.7.7,0,0,0,.3-.6.5.5,0,0,0-.3-.5l-.9-.3-1.3-.4-.6-.5a1.3,1.3,0,0,1-.2-.7,1.3,1.3,0,0,1,.2-.6l.4-.5.6-.3h.8l1.1.2.7.5a1.9,1.9,0,0,1,.3.8h-.9a.9.9,0,0,0-.3-.6l-.8-.2-.9.2a.6.6,0,0,0-.3.5.5.5,0,0,0,.1.3l.3.2.8.2,1.3.4.6.5a1.3,1.3,0,0,1,.2.8,1.5,1.5,0,0,1-.3.8,1.7,1.7,0,0,1-.7.6l-1.1.2a2.4,2.4,0,0,1-1.5-.4A2,2,0,0,1,506.2,369.5Z" transform="translate(0.8 -104.3)"/><path d="M517.7,370.4l-.9.6-1,.2a1.9,1.9,0,0,1-1.3-.4,1.4,1.4,0,0,1-.5-1.1,1.4,1.4,0,0,1,.2-.7l.5-.5.6-.3h.8l1.6-.3v-.2a1,1,0,0,0-.2-.8,1.5,1.5,0,0,0-1-.3l-.9.2a1.3,1.3,0,0,0-.4.8h-.9a2.1,2.1,0,0,1,.4-.9,1.7,1.7,0,0,1,.8-.5l1.2-.2,1.1.2.6.4a1.4,1.4,0,0,1,.3.6,5,5,0,0,1,0,.8v1.2a12.6,12.6,0,0,0,.1,1.6,2,2,0,0,0,.2.6h-.9A1.8,1.8,0,0,1,517.7,370.4Zm-.1-2-1.4.3-.8.2-.3.3a.8.8,0,0,0,.1,1,1.1,1.1,0,0,0,.8.2l.9-.2a1.4,1.4,0,0,0,.6-.6,2.1,2.1,0,0,0,.1-.9Z" transform="translate(0.8 -104.3)"/><path d="M519.7,371.4h.9a.8.8,0,0,0,.3.6,1.5,1.5,0,0,0,.9.2,1.6,1.6,0,0,0,.9-.2,1.2,1.2,0,0,0,.4-.7,5.7,5.7,0,0,0,.1-1.1,1.8,1.8,0,0,1-1.4.7,2,2,0,0,1-1.7-.8,3,3,0,0,1-.6-1.9,3.4,3.4,0,0,1,.3-1.4,2.1,2.1,0,0,1,.8-1,2.1,2.1,0,0,1,1.2-.3,1.9,1.9,0,0,1,1.5.7v-.6h.8v4.5a4.2,4.2,0,0,1-.2,1.7,1.8,1.8,0,0,1-.8.8,2.7,2.7,0,0,1-1.3.3,2.5,2.5,0,0,1-1.5-.4A1.4,1.4,0,0,1,519.7,371.4Zm.7-3.1a2.2,2.2,0,0,0,.4,1.5,1.3,1.3,0,0,0,1,.5,1.3,1.3,0,0,0,1-.5,2.2,2.2,0,0,0,.4-1.5,2.1,2.1,0,0,0-.4-1.4,1.3,1.3,0,0,0-1-.5,1.3,1.3,0,0,0-1,.5A2.1,2.1,0,0,0,520.4,368.3Z" transform="translate(0.8 -104.3)"/><path d="M525.1,368.4a2.7,2.7,0,0,1,.8-2.1,2.4,2.4,0,0,1,1.6-.6,2.3,2.3,0,0,1,1.7.7,2.7,2.7,0,0,1,.7,1.9,3.4,3.4,0,0,1-.3,1.6,2.1,2.1,0,0,1-.9.9,2.5,2.5,0,0,1-1.3.3,2.3,2.3,0,0,1-1.8-.7A2.8,2.8,0,0,1,525.1,368.4Zm.9,0a2.2,2.2,0,0,0,.4,1.5,1.4,1.4,0,0,0,2.2,0,2.3,2.3,0,0,0,.4-1.5,2.1,2.1,0,0,0-.4-1.5,1.4,1.4,0,0,0-2.2,0A2.2,2.2,0,0,0,526,368.4Z" transform="translate(0.8 -104.3)"/><path d="M574.7,111.5v-7.2h1l3.8,5.6v-5.6h.9v7.2h-1l-3.8-5.6v5.6Z" transform="translate(0.8 -104.3)"/><path d="M581.5,108.9a2.7,2.7,0,0,1,.8-2.1,2.4,2.4,0,0,1,1.6-.6,2.3,2.3,0,0,1,1.7.7,2.7,2.7,0,0,1,.7,1.9,3.4,3.4,0,0,1-.3,1.6,2.1,2.1,0,0,1-.9.9,2.5,2.5,0,0,1-1.3.3,2.3,2.3,0,0,1-1.8-.7A2.8,2.8,0,0,1,581.5,108.9Zm.9,0a2.2,2.2,0,0,0,.4,1.5,1.4,1.4,0,0,0,2.2,0,2.3,2.3,0,0,0,.4-1.5,2.1,2.1,0,0,0-.4-1.5,1.4,1.4,0,0,0-2.2,0A2.2,2.2,0,0,0,582.4,108.9Z" transform="translate(0.8 -104.3)"/><path d="M588.3,111.5l-1.6-5.2h.9l.8,3,.3,1.1.3-1.1.8-3h.9l.8,3,.3,1,.3-1,.9-3h.9l-1.6,5.2h-.9l-.8-3.1-.2-.9-1,4Z" transform="translate(0.8 -104.3)"/></svg>