<svg xmlns="http://www.w3.org/2000/svg" viewBox="0 0 490.5 351.5"><title>CarbonCylce</title><path d="M141.3,333.9h-1" transform="translate(-4.6 -1.6)" style="fill:none;stroke:#007fff;stroke-miterlimit:10"/><path d="M138.3,333.9C-24.3,330.2-71.3,28.2,189.7,26.7" transform="translate(-4.6 -1.6)" style="fill:none;stroke:#007fff;stroke-miterlimit:10;stroke-dasharray:2.000131845474243,2.000131845474243"/><path d="M190.7,26.7h1" transform="translate(-4.6 -1.6)" style="fill:none;stroke:#007fff;stroke-miterlimit:10"/><polygon points="185.6 30.1 194.2 25.1 185.6 20.1 185.6 30.1" style="fill:#007fff"/><path d="M317,293.9h-1" transform="translate(-4.6 -1.6)" style="fill:none;stroke:#007fff;stroke-miterlimit:10"/><path d="M314,293.9C14.2,292,52.7,9.3,190,6.6" transform="translate(-4.6 -1.6)" style="fill:none;stroke:#007fff;stroke-miterlimit:10;stroke-dasharray:2.0029208660125732,2.0029208660125732"/><path d="M191,6.6h1" transform="translate(-4.6 -1.6)" style="fill:none;stroke:#007fff;stroke-miterlimit:10"/><polygon points="185.9 10 194.6 5 185.9 0 185.9 10" style="fill:#007fff"/><path d="M422.3,339.9c29.3,0,31.8-32.8,31.8-46" transform="translate(-4.6 -1.6)" style="fill:none;stroke:#16161d;stroke-miterlimit:10;stroke-width:0.5px"/><polygon points="418.4 340.8 414.1 338.3 418.4 335.8 418.4 340.8" style="fill:#16161d"/><path d="M353.6,96c0-32.9-17.3-68.8-64.6-68.8" transform="translate(-4.6 -1.6)" style="fill:none;stroke:#16161d;stroke-miterlimit:10;stroke-width:0.5px"/><polygon points="351.5 93.7 349 98 346.5 93.7 351.5 93.7" style="fill:#16161d"/><path d="M454.2,247.7C454.2,130.2,415.1,6,289,6" transform="translate(-4.6 -1.6)" style="fill:none;stroke:#16161d;stroke-miterlimit:10;stroke-width:0.5px"/><polygon points="452 245.3 449.5 249.7 447.1 245.3 452 245.3" style="fill:#16161d"/><path d="M285.3,3H205.2V29.3h80.1Z" transform="translate(-4.6 -1.6)" style="fill:#16161d"/><path d="M233.8,333.9c79.8,0,119.8-129.9,119.8-197.3" transform="translate(-4.6 -1.6)" style="fill:none;stroke:#16161d;stroke-miterlimit:10;stroke-width:0.5px"/><polygon points="229.9 334.9 225.6 332.4 229.9 329.9 229.9 334.9" style="fill:#16161d"/><path d="M173,13" transform="translate(-4.6 -1.6)" style="fill:none;stroke:#000;stroke-miterlimit:10"/><path d="M159.9,244.7C18.1,244.7-13.4,6.6,192,6.6" transform="translate(-4.6 -1.6)" style="fill:none;stroke:#16161d;stroke-miterlimit:10;stroke-width:0.5px"/><polygon points="186.6 7.5 191 5 186.6 2.5 186.6 7.5" style="fill:#16161d"/><path d="M368.7,271.5c16.3-36.2,18.8-78.5,18.8-134.8" transform="translate(-4.6 -1.6)" style="fill:none;stroke:#16161d;stroke-miterlimit:10;stroke-width:0.5px"/><polygon points="366.6 270.3 362.6 273.2 362.1 268.2 366.6 270.3" style="fill:#16161d"/><path d="M201.8,312.2c13-8.4,25.9-26,25.9-46.7" transform="translate(-4.6 -1.6)" style="fill:none;stroke:#16161d;stroke-miterlimit:10;stroke-width:0.5px"/><polygon points="199.1 312.3 194.1 312.5 196.4 308.1 199.1 312.3" style="fill:#16161d"/><path d="M113.2,303.7c28.2,0,67.7-7.7,67.7-41" transform="translate(-4.6 -1.6)" style="fill:none;stroke:#16161d;stroke-miterlimit:10;stroke-width:0.5px"/><polygon points="109.3 304.7 105 302.2 109.3 299.7 109.3 304.7" style="fill:#16161d"/><path d="M393.7,103.9H313.6v26.4h80.1Z" transform="translate(-4.6 -1.6)" style="fill:#16161d"/><path d="M495.2,260.3H415.1v26.4h80.1Z" transform="translate(-4.6 -1.6)" style="fill:#16161d"/><path d="M411.6,326.7H331.6v26.4h80.1Z" transform="translate(-4.6 -1.6)" style="fill:#16161d"/><path d="M401.7,280.7H321.6v26.4h80.1Z" transform="translate(-4.6 -1.6)" style="fill:#16161d"/><path d="M227.1,320.7H147v26.4h80.1Z" transform="translate(-4.6 -1.6)" style="fill:#16161d"/><path d="M103.1,290.5H23v26.4h80.1Z" transform="translate(-4.6 -1.6)" style="fill:#16161d"/><path d="M245.3,231.5H165.2v26.4h80.1Z" transform="translate(-4.6 -1.6)" style="fill:#16161d"/><path d="M191.7,26.7c-109.7,0-109.6,135.3-41,175S317,214.3,317,136.7" transform="translate(-4.6 -1.6)" style="fill:none;stroke:#16161d;stroke-miterlimit:10;stroke-width:0.5px"/><polygon points="186.3 22.6 190.6 25.1 186.3 27.6 186.3 22.6" style="fill:#16161d"/><path d="M195.8,247.2h-1.3l-.5-1.3h-2.3l-.5,1.3h-1.2l2.2-5.7h1.2Zm-2.1-2.3-.8-2.1-.8,2.1Z" transform="translate(-4.6 -1.6)" style="fill:#fff"/><path d="M200.2,247.2h-1.1v-2.1a3.3,3.3,0,0,0-.1-.9l-.2-.3h-.4l-.5.2-.3.4a3.6,3.6,0,0,0-.1,1v1.9h-1.1V243h1v.6a1.7,1.7,0,0,1,1.4-.7h.7l.5.3.2.5a3.4,3.4,0,0,1,.1.7Z" transform="translate(-4.6 -1.6)" style="fill:#fff"/><path d="M201.3,242.5v-1h1.1v1Zm0,4.7V243h1.1v4.1Z" transform="translate(-4.6 -1.6)" style="fill:#fff"/><path d="M203.5,243h1v.6a1.6,1.6,0,0,1,1.3-.7l.7.2.5.5.6-.5.7-.2.8.2a1.1,1.1,0,0,1,.5.5,2.4,2.4,0,0,1,.1.9v2.7h-1.1v-2.4a1.8,1.8,0,0,0-.1-.8.5.5,0,0,0-.5-.2h-.4l-.3.4a3,3,0,0,0-.1.9v2H206v-2.3a3.2,3.2,0,0,0-.1-.8l-.2-.3h-.8l-.3.4a2.9,2.9,0,0,0-.1.9v2h-1.1Z" transform="translate(-4.6 -1.6)" style="fill:#fff"/><path d="M211.5,244.3l-1-.2a1.6,1.6,0,0,1,.6-.9,2.1,2.1,0,0,1,1.2-.3l1.1.2.5.4a2.3,2.3,0,0,1,.1,1v1.3a4.4,4.4,0,0,0,.1.8l.2.6h-1.1v-.3h0l-.6.4h-.7a1.4,1.4,0,0,1-1-.3,1.2,1.2,0,0,1-.4-.9,1.2,1.2,0,0,1,.2-.6l.5-.4.9-.3,1.1-.3h0a.6.6,0,0,0-.2-.5h-1Zm1.5.9-.7.2-.6.2a.5.5,0,0,0-.2.4.5.5,0,0,0,.2.4l.4.2.6-.2.3-.4a2.2,2.2,0,0,0,0-.5Z" transform="translate(-4.6 -1.6)" style="fill:#fff"/><path d="M215.1,247.2v-5.7h1.1v5.7Z" transform="translate(-4.6 -1.6)" style="fill:#fff"/><path d="M216.9,246l1.1-.2a.8.8,0,0,0,.3.5l.6.2.6-.2a.3.3,0,0,0,.1-.3v-.2h-.4l-1.7-.5a1.1,1.1,0,0,1-.5-.9,1.2,1.2,0,0,1,.4-.9,2,2,0,0,1,1.3-.4,2.3,2.3,0,0,1,1.3.3,1.4,1.4,0,0,1,.6.8l-1,.2-.3-.4h-1.2v.4l1,.3a3.1,3.1,0,0,1,1.2.5,1,1,0,0,1,.3.8,1.3,1.3,0,0,1-.5,1,2.1,2.1,0,0,1-1.4.4,2.3,2.3,0,0,1-1.3-.3A1.6,1.6,0,0,1,216.9,246Z" transform="translate(-4.6 -1.6)" style="fill:#fff"/><path d="M168.2,336.5v-5.7h3.2a1.5,1.5,0,0,1,.8.6,1.8,1.8,0,0,1,.3,1.1,1.9,1.9,0,0,1-.2.9l-.5.6-.6.3h-2v2.2Zm1.2-4.8v1.6h1.5l.4-.3a.8.8,0,0,0,.1-.4.7.7,0,0,0-.2-.5l-.5-.3h-1.4Z" transform="translate(-4.6 -1.6)" style="fill:#fff"/><path d="M175.9,335.2l1.1.2a1.8,1.8,0,0,1-.7.9,2,2,0,0,1-1.1.3,1.9,1.9,0,0,1-1.6-.7,2.4,2.4,0,0,1-.4-1.4,2.3,2.3,0,0,1,.5-1.6,1.8,1.8,0,0,1,1.4-.6,1.8,1.8,0,0,1,1.5.6,2.7,2.7,0,0,1,.5,1.9h-2.7a1.1,1.1,0,0,0,.3.8.8.8,0,0,0,.6.3h.4A.9.9,0,0,0,175.9,335.2Zm.1-1.1a1.1,1.1,0,0,0-.2-.7l-.6-.2a.8.8,0,0,0-.6.3,1,1,0,0,0-.2.7Z" transform="translate(-4.6 -1.6)" style="fill:#fff"/><path d="M179.9,332.4v.9h-.7v1.7a4.2,4.2,0,0,0,0,.6h.7v.9l-.9.2h-.5l-.3-.3a1,1,0,0,1-.2-.4,5.3,5.3,0,0,1,0-.8v-1.8h-.5v-.9h.5v-.8l1.1-.6v1.5Z" transform="translate(-4.6 -1.6)" style="fill:#fff"/><path d="M181.7,336.5h-1.1v-4.1h1v.6l.5-.6h.5l.7.2-.3,1-.5-.2H182a.9.9,0,0,0-.3.5,6.5,6.5,0,0,0-.1,1.4Z" transform="translate(-4.6 -1.6)" style="fill:#fff"/><path d="M183.5,334.4a2.2,2.2,0,0,1,.3-1.1,1.9,1.9,0,0,1,.8-.8l1.1-.3a2.1,2.1,0,0,1,1.5.6,2.1,2.1,0,0,1,.6,1.5,2.1,2.1,0,0,1-.6,1.6,2.1,2.1,0,0,1-1.5.6l-1.1-.3a1.8,1.8,0,0,1-.8-.8A2.5,2.5,0,0,1,183.5,334.4Zm1.1.1a1.4,1.4,0,0,0,.3.9,1,1,0,0,0,1.4,0,1.4,1.4,0,0,0,.3-1,1.4,1.4,0,0,0-.3-.9,1,1,0,0,0-1.4,0A1.4,1.4,0,0,0,184.6,334.5Z" transform="translate(-4.6 -1.6)" style="fill:#fff"/><path d="M188.7,336.5v-5.7h1.1v5.7Z" transform="translate(-4.6 -1.6)" style="fill:#fff"/><path d="M193.3,335.2l1.1.2a1.8,1.8,0,0,1-.7.9,2,2,0,0,1-1.1.3,1.9,1.9,0,0,1-1.6-.7,2.4,2.4,0,0,1-.4-1.4,2.3,2.3,0,0,1,.5-1.6,1.8,1.8,0,0,1,1.4-.6,1.8,1.8,0,0,1,1.5.6,2.7,2.7,0,0,1,.5,1.9h-2.7a1.1,1.1,0,0,0,.3.8.8.8,0,0,0,.6.3h.4A.9.9,0,0,0,193.3,335.2Zm.1-1.1a1.1,1.1,0,0,0-.2-.7l-.6-.2a.8.8,0,0,0-.6.3,1,1,0,0,0-.2.7Z" transform="translate(-4.6 -1.6)" style="fill:#fff"/><path d="M198.1,336.5v-.6l-.6.5-.8.2-.7-.2a1.1,1.1,0,0,1-.5-.5,2.3,2.3,0,0,1-.1-.9v-2.6h1.1v1.9a5.3,5.3,0,0,0,.1,1.1l.2.3h.4l.5-.2.3-.4a4.4,4.4,0,0,0,.1-1.1v-1.7h1.1v4.1Z" transform="translate(-4.6 -1.6)" style="fill:#fff"/><path d="M200.1,332.4h1v.6a1.6,1.6,0,0,1,1.3-.7l.7.2.5.5.6-.5.7-.2.8.2a1.1,1.1,0,0,1,.5.5,2.4,2.4,0,0,1,.1.9v2.7h-1.1v-2.4a1.8,1.8,0,0,0-.1-.8.5.5,0,0,0-.5-.2h-.4l-.3.4a3,3,0,0,0-.1.9v2h-1.1v-2.3a3.2,3.2,0,0,0-.1-.8l-.2-.3h-.8l-.3.4a2.9,2.9,0,0,0-.1.9v2h-1.1Z" transform="translate(-4.6 -1.6)" style="fill:#fff"/><path d="M356.7,293.9l1.1.4a2.5,2.5,0,0,1-.9,1.4,2.7,2.7,0,0,1-3.4-.3,3,3,0,0,1-.7-2.1,3.1,3.1,0,0,1,.7-2.2,2.5,2.5,0,0,1,1.9-.8,2.4,2.4,0,0,1,1.7.6,2.3,2.3,0,0,1,.6,1.1l-1.1.3a1.2,1.2,0,0,0-1.2-1,1.3,1.3,0,0,0-1,.5,2.2,2.2,0,0,0-.4,1.5,2.4,2.4,0,0,0,.4,1.5,1.3,1.3,0,0,0,1,.5,1.2,1.2,0,0,0,.8-.3A1.7,1.7,0,0,0,356.7,293.9Z" transform="translate(-4.6 -1.6)" style="fill:#fff"/><path d="M358.6,293.9a2.2,2.2,0,0,1,.3-1.1,1.8,1.8,0,0,1,.8-.8l1.1-.3a2.1,2.1,0,0,1,1.5.6,2.1,2.1,0,0,1,.6,1.5,2.1,2.1,0,0,1-.6,1.6,2.1,2.1,0,0,1-1.5.6l-1.1-.3a1.8,1.8,0,0,1-.8-.8A2.5,2.5,0,0,1,358.6,293.9Zm1.1.1a1.4,1.4,0,0,0,.3.9,1,1,0,0,0,1.4,0,1.4,1.4,0,0,0,.3-1,1.4,1.4,0,0,0-.3-.9,1,1,0,0,0-1.4,0A1.4,1.4,0,0,0,359.7,294Z" transform="translate(-4.6 -1.6)" style="fill:#fff"/><path d="M364.5,293.1l-1-.2a1.6,1.6,0,0,1,.6-.9,2.1,2.1,0,0,1,1.2-.3l1.1.2.5.4a2.3,2.3,0,0,1,.1,1v1.3a4.4,4.4,0,0,0,.1.8l.2.6h-1.1v-.3h0l-.6.4h-.7a1.4,1.4,0,0,1-1-.3,1.2,1.2,0,0,1-.4-.9,1.2,1.2,0,0,1,.2-.6l.5-.4.9-.3,1.1-.3h0a.6.6,0,0,0-.2-.5h-1Zm1.5.9-.7.2-.6.2a.5.5,0,0,0-.2.4.5.5,0,0,0,.2.4l.4.2.6-.2.3-.4a2.2,2.2,0,0,0,0-.5Z" transform="translate(-4.6 -1.6)" style="fill:#fff"/><path d="M368.2,296v-5.7h1.1V296Z" transform="translate(-4.6 -1.6)" style="fill:#fff"/><path d="M351.7,342.1v-5.7h1.2v4.7h2.9v1Z" transform="translate(-4.6 -1.6)" style="fill:#fff"/><path d="M356.6,337.4v-1h1.1v1Zm0,4.7v-4.1h1.1v4.1Z" transform="translate(-4.6 -1.6)" style="fill:#fff"/><path d="M358.7,337.9h1v.6a1.6,1.6,0,0,1,1.3-.7l.7.2.5.5.6-.5.7-.2.8.2a1.1,1.1,0,0,1,.5.5,2.3,2.3,0,0,1,.1.9v2.7h-1.1v-2.4a1.8,1.8,0,0,0-.1-.8.5.5,0,0,0-.5-.2h-.4l-.3.4a3,3,0,0,0-.1.9v2h-1.1v-2.3a3.1,3.1,0,0,0-.1-.8l-.2-.3h-.8l-.3.4a2.9,2.9,0,0,0-.1.9v2h-1.1Z" transform="translate(-4.6 -1.6)" style="fill:#fff"/><path d="M368.3,340.8l1.1.2a1.8,1.8,0,0,1-.7.9,2,2,0,0,1-1.1.3,1.9,1.9,0,0,1-1.6-.7,2.4,2.4,0,0,1-.4-1.4,2.3,2.3,0,0,1,.5-1.6,1.8,1.8,0,0,1,1.4-.6,1.8,1.8,0,0,1,1.5.6,2.7,2.7,0,0,1,.5,1.9h-2.7a1.1,1.1,0,0,0,.3.8.8.8,0,0,0,.6.3h.4A.9.9,0,0,0,368.3,340.8Zm.1-1.1a1.1,1.1,0,0,0-.2-.7l-.6-.2a.8.8,0,0,0-.6.3,1,1,0,0,0-.2.7Z" transform="translate(-4.6 -1.6)" style="fill:#fff"/><path d="M370,340.9l1.1-.2a.8.8,0,0,0,.3.5l.6.2.6-.2a.3.3,0,0,0,.1-.3v-.2h-.4l-1.7-.5a1.1,1.1,0,0,1-.5-.9,1.2,1.2,0,0,1,.4-.9,2,2,0,0,1,1.3-.4,2.3,2.3,0,0,1,1.3.3,1.4,1.4,0,0,1,.6.8l-1,.2-.3-.4h-1.2v.4l1,.3a3,3,0,0,1,1.2.5,1,1,0,0,1,.3.8,1.3,1.3,0,0,1-.5,1,2.1,2.1,0,0,1-1.4.4,2.3,2.3,0,0,1-1.3-.3A1.6,1.6,0,0,1,370,340.9Z" transform="translate(-4.6 -1.6)" style="fill:#fff"/><path d="M376.7,337.9v.9H376v1.7a4.3,4.3,0,0,0,0,.6h.7v.9l-.9.2h-.5l-.3-.3a1,1,0,0,1-.2-.4,5.3,5.3,0,0,1,0-.8v-1.8h-.5v-.9h.5v-.8l1.1-.6v1.5Z" transform="translate(-4.6 -1.6)" style="fill:#fff"/><path d="M377.2,339.9a2.2,2.2,0,0,1,.3-1.1,1.8,1.8,0,0,1,.8-.8l1.1-.3a2.1,2.1,0,0,1,1.5.6,2.1,2.1,0,0,1,.6,1.5,2.1,2.1,0,0,1-.6,1.6,2.1,2.1,0,0,1-1.5.6l-1.1-.3a1.8,1.8,0,0,1-.8-.8A2.5,2.5,0,0,1,377.2,339.9Zm1.1.1a1.4,1.4,0,0,0,.3.9,1,1,0,0,0,1.4,0,1.4,1.4,0,0,0,.3-1,1.4,1.4,0,0,0-.3-.9,1,1,0,0,0-1.4,0A1.4,1.4,0,0,0,378.4,340Z" transform="translate(-4.6 -1.6)" style="fill:#fff"/><path d="M386.2,342.1h-1.1V340a3.3,3.3,0,0,0-.1-.9l-.2-.3h-.4l-.5.2-.3.4a3.6,3.6,0,0,0-.1,1v1.9h-1.1v-4.1h1v.6a1.7,1.7,0,0,1,1.4-.7h.7l.5.3.2.5a3.4,3.4,0,0,1,.1.7Z" transform="translate(-4.6 -1.6)" style="fill:#fff"/><path d="M389.7,340.8l1.1.2a1.8,1.8,0,0,1-.7.9,2,2,0,0,1-1.1.3,1.9,1.9,0,0,1-1.6-.7,2.4,2.4,0,0,1-.4-1.4,2.3,2.3,0,0,1,.5-1.6,1.8,1.8,0,0,1,1.4-.6,1.8,1.8,0,0,1,1.5.6,2.7,2.7,0,0,1,.5,1.9h-2.7a1.1,1.1,0,0,0,.3.8.8.8,0,0,0,.6.3h.4A.9.9,0,0,0,389.7,340.8Zm.1-1.1a1.1,1.1,0,0,0-.2-.7l-.6-.2a.8.8,0,0,0-.6.3,1,1,0,0,0-.2.7Z" transform="translate(-4.6 -1.6)" style="fill:#fff"/><path d="M437.4,269.4l1.1.4a2.5,2.5,0,0,1-.9,1.4,2.7,2.7,0,0,1-3.4-.3,3,3,0,0,1-.7-2.1,3.1,3.1,0,0,1,.7-2.2,2.5,2.5,0,0,1,1.9-.8,2.4,2.4,0,0,1,1.7.6,2.3,2.3,0,0,1,.6,1.1l-1.1.3a1.2,1.2,0,0,0-1.2-1,1.3,1.3,0,0,0-1,.5,2.2,2.2,0,0,0-.4,1.5,2.4,2.4,0,0,0,.4,1.5,1.3,1.3,0,0,0,1,.5,1.2,1.2,0,0,0,.8-.3A1.7,1.7,0,0,0,437.4,269.4Z" transform="translate(-4.6 -1.6)" style="fill:#fff"/><path d="M440.3,268.6l-1-.2a1.6,1.6,0,0,1,.6-.9,2.1,2.1,0,0,1,1.2-.3l1.1.2.5.4a2.3,2.3,0,0,1,.1,1v1.3a4.4,4.4,0,0,0,.1.8l.2.6H442v-.3h0l-.6.4h-.7a1.4,1.4,0,0,1-1-.3,1.2,1.2,0,0,1-.4-.9,1.2,1.2,0,0,1,.2-.6l.5-.4.9-.3,1.1-.3h0a.6.6,0,0,0-.2-.5h-1Zm1.5.9-.7.2-.6.2a.5.5,0,0,0-.2.4.5.5,0,0,0,.2.4l.4.2.6-.2.3-.4a2.1,2.1,0,0,0,0-.5Z" transform="translate(-4.6 -1.6)" style="fill:#fff"/><path d="M445,271.5h-1.1v-4.1h1v.6l.5-.6h.5l.7.2-.3,1-.5-.2h-.4a.9.9,0,0,0-.3.5,6.6,6.6,0,0,0-.1,1.4Z" transform="translate(-4.6 -1.6)" style="fill:#fff"/><path d="M447,271.5v-5.7h1.1v2.1a1.6,1.6,0,0,1,1.2-.6,1.6,1.6,0,0,1,1.3.5,2.3,2.3,0,0,1,.5,1.6,2.4,2.4,0,0,1-.5,1.6,1.6,1.6,0,0,1-1.2.6l-.7-.2-.6-.5v.6Zm1.1-2.2a1.8,1.8,0,0,0,.2,1,.9.9,0,0,0,.8.4.8.8,0,0,0,.6-.3,1.5,1.5,0,0,0,.3-1,1.6,1.6,0,0,0-.3-1,.8.8,0,0,0-.7-.3.8.8,0,0,0-.7.3A1.4,1.4,0,0,0,448.1,269.3Z" transform="translate(-4.6 -1.6)" style="fill:#fff"/><path d="M451.7,269.4a2.2,2.2,0,0,1,.3-1.1,1.9,1.9,0,0,1,.8-.8l1.1-.3a2.1,2.1,0,0,1,1.5.6,2.1,2.1,0,0,1,.6,1.5,2.1,2.1,0,0,1-.6,1.6,2,2,0,0,1-1.5.6l-1.1-.3a1.8,1.8,0,0,1-.8-.8A2.5,2.5,0,0,1,451.7,269.4Zm1.1.1a1.4,1.4,0,0,0,.3.9,1,1,0,0,0,1.4,0,1.4,1.4,0,0,0,.3-1,1.4,1.4,0,0,0-.3-.9,1,1,0,0,0-1.4,0A1.4,1.4,0,0,0,452.8,269.4Z" transform="translate(-4.6 -1.6)" style="fill:#fff"/><path d="M460.6,271.5h-1.1v-2.1a3.3,3.3,0,0,0-.1-.9l-.2-.3h-.4l-.5.2-.3.4a3.6,3.6,0,0,0-.1,1v1.9h-1.1v-4.1h1v.6a1.7,1.7,0,0,1,1.4-.7h.7l.5.3.2.5a3.4,3.4,0,0,1,.1.7Z" transform="translate(-4.6 -1.6)" style="fill:#fff"/><path d="M462.5,268.6l-1-.2a1.6,1.6,0,0,1,.6-.9,2.1,2.1,0,0,1,1.2-.3l1.1.2.5.4a2.3,2.3,0,0,1,.1,1v1.3a4.4,4.4,0,0,0,.1.8l.2.6h-1.1v-.3h0l-.6.4h-.7a1.4,1.4,0,0,1-1-.3,1.2,1.2,0,0,1-.4-.9,1.2,1.2,0,0,1,.2-.6l.5-.4.9-.3,1.1-.3h0a.6.6,0,0,0-.2-.5h-1Zm1.5.9-.7.2-.6.2a.5.5,0,0,0-.2.4.5.5,0,0,0,.2.4l.4.2.6-.2.3-.4a2.1,2.1,0,0,0,0-.5Z" transform="translate(-4.6 -1.6)" style="fill:#fff"/><path d="M468.1,267.4v.9h-.7v1.7a4.3,4.3,0,0,0,0,.6h.7v.9l-.9.2h-.5l-.3-.3a1,1,0,0,1-.2-.4,5.3,5.3,0,0,1,0-.8v-1.8h-.5v-.9h.5v-.8l1.1-.6v1.5Z" transform="translate(-4.6 -1.6)" style="fill:#fff"/><path d="M471.2,270.2l1.1.2a1.8,1.8,0,0,1-.7.9,2,2,0,0,1-1.1.3,1.9,1.9,0,0,1-1.6-.7,2.4,2.4,0,0,1-.4-1.4,2.3,2.3,0,0,1,.5-1.6,1.8,1.8,0,0,1,1.4-.6,1.8,1.8,0,0,1,1.5.6,2.7,2.7,0,0,1,.5,1.9h-2.7a1.1,1.1,0,0,0,.3.8.8.8,0,0,0,.6.3h.4A.9.9,0,0,0,471.2,270.2Zm.1-1.1a1.1,1.1,0,0,0-.2-.7l-.6-.2a.8.8,0,0,0-.6.3,1,1,0,0,0-.2.7Z" transform="translate(-4.6 -1.6)" style="fill:#fff"/><path d="M472.9,270.3l1.1-.2a.8.8,0,0,0,.3.5l.6.2.6-.2a.3.3,0,0,0,.1-.3v-.2h-.4l-1.7-.5a1.1,1.1,0,0,1-.5-.9,1.2,1.2,0,0,1,.4-.9,2,2,0,0,1,1.3-.4,2.3,2.3,0,0,1,1.3.3,1.4,1.4,0,0,1,.6.8l-1,.2-.3-.4h-1.2v.4l1,.3a3.1,3.1,0,0,1,1.2.5,1,1,0,0,1,.3.8,1.3,1.3,0,0,1-.5,1,2.1,2.1,0,0,1-1.4.4,2.3,2.3,0,0,1-1.3-.3A1.6,1.6,0,0,1,472.9,270.3Z" transform="translate(-4.6 -1.6)" style="fill:#fff"/><path d="M441.7,276.4v-1h1.1v1Zm0,4.7V277h1.1v4.1Z" transform="translate(-4.6 -1.6)" style="fill:#fff"/><path d="M447.7,281.1h-1.1V279a3.3,3.3,0,0,0-.1-.9l-.2-.3h-.4l-.5.2-.3.4a3.6,3.6,0,0,0-.1,1v1.9h-1.1V277h1v.6a1.7,1.7,0,0,1,1.4-.7h.7l.5.3.2.5a3.4,3.4,0,0,1,.1.7Z" transform="translate(-4.6 -1.6)" style="fill:#fff"/><path d="M451.8,281.1l-1.3-4.1h1.1l.8,2.7.7-2.7h1.1l.7,2.7.8-2.7h1.1l-1.3,4.1h-1.1l-.7-2.7-.7,2.7Z" transform="translate(-4.6 -1.6)" style="fill:#fff"/><path d="M458.1,278.2l-1-.2a1.6,1.6,0,0,1,.6-.9,2.1,2.1,0,0,1,1.2-.3l1.1.2.5.4a2.3,2.3,0,0,1,.1,1v1.3a4.5,4.5,0,0,0,.1.8l.2.6h-1.1v-.3h0l-.6.4h-.7a1.4,1.4,0,0,1-1-.3,1.2,1.2,0,0,1-.4-.9,1.2,1.2,0,0,1,.2-.6l.5-.4.9-.3,1.1-.3h0a.6.6,0,0,0-.2-.5h-1Zm1.5.9-.7.2-.6.2a.5.5,0,0,0-.2.4.5.5,0,0,0,.2.4l.4.2.6-.2.3-.4a2.1,2.1,0,0,0,0-.5Z" transform="translate(-4.6 -1.6)" style="fill:#fff"/><path d="M463.6,277v.9h-.7v1.7a4.3,4.3,0,0,0,0,.6h.7v.9l-.9.2h-.5l-.3-.3a1,1,0,0,1-.2-.4,5.3,5.3,0,0,1,0-.8v-1.8h-.5V277h.5v-.8l1.1-.6V277Z" transform="translate(-4.6 -1.6)" style="fill:#fff"/><path d="M466.8,279.8l1.1.2a1.8,1.8,0,0,1-.7.9,2,2,0,0,1-1.1.3,1.9,1.9,0,0,1-1.6-.7,2.4,2.4,0,0,1-.4-1.4,2.3,2.3,0,0,1,.5-1.6,1.8,1.8,0,0,1,1.4-.6,1.8,1.8,0,0,1,1.5.6,2.7,2.7,0,0,1,.5,1.9h-2.7a1.1,1.1,0,0,0,.3.8.8.8,0,0,0,.6.3h.4A.9.9,0,0,0,466.8,279.8Zm.1-1.1a1.1,1.1,0,0,0-.2-.7l-.6-.2a.8.8,0,0,0-.6.3,1,1,0,0,0-.2.7Z" transform="translate(-4.6 -1.6)" style="fill:#fff"/><path d="M469.9,281.1h-1.1V277h1v.6l.5-.6h.5l.7.2-.3,1-.5-.2h-.4a.9.9,0,0,0-.3.5,6.6,6.6,0,0,0-.1,1.4Z" transform="translate(-4.6 -1.6)" style="fill:#fff"/><path d="M252.6,244.7c52.8,0,81.8-43.3,81.8-108" transform="translate(-4.6 -1.6)" style="fill:none;stroke:#16161d;stroke-miterlimit:10;stroke-width:0.5px"/><polygon points="248.7 245.6 244.4 243.1 248.7 240.6 248.7 245.6" style="fill:#16161d"/><path d="M213.6,17l1.1.4a2.5,2.5,0,0,1-.9,1.4,2.7,2.7,0,0,1-3.4-.3,3,3,0,0,1-.7-2.1,3.1,3.1,0,0,1,.7-2.2,2.5,2.5,0,0,1,1.9-.8,2.4,2.4,0,0,1,1.7.6,2.3,2.3,0,0,1,.6,1.1l-1.1.3a1.2,1.2,0,0,0-1.2-1,1.3,1.3,0,0,0-1,.5,2.2,2.2,0,0,0-.4,1.5,2.4,2.4,0,0,0,.4,1.5,1.3,1.3,0,0,0,1,.5,1.2,1.2,0,0,0,.8-.3A1.7,1.7,0,0,0,213.6,17Z" transform="translate(-4.6 -1.6)" style="fill:#fff"/><path d="M215.5,16.3a3.6,3.6,0,0,1,.3-1.5l.5-.8.7-.5,1.2-.2a2.7,2.7,0,0,1,2,.8,3,3,0,0,1,.8,2.2,3,3,0,0,1-.8,2.2,2.7,2.7,0,0,1-2,.8,2.7,2.7,0,0,1-2-.8A3,3,0,0,1,215.5,16.3Zm1.2,0a2.1,2.1,0,0,0,.4,1.5,1.5,1.5,0,0,0,2.3,0,2.2,2.2,0,0,0,.4-1.5,2.2,2.2,0,0,0-.4-1.5,1.6,1.6,0,0,0-2.3,0A2.2,2.2,0,0,0,216.6,16.3Z" transform="translate(-4.6 -1.6)" style="fill:#fff"/><path d="M223.8,18.5v.6h-2.4a1.4,1.4,0,0,1,.2-.6l.8-.7.5-.5a.5.5,0,0,0,.1-.3v-.2h-.6a.6.6,0,0,0-.1.4h-.7a1,1,0,0,1,.3-.7,1.3,1.3,0,0,1,.9-.3,1.2,1.2,0,0,1,.8.3.8.8,0,0,1,.3.6.9.9,0,0,1-.1.4l-.3.4-.5.4-.3.3Z" transform="translate(-4.6 -1.6)" style="fill:#fff"/><path d="M226.8,14.4v-1h1.1v1Zm0,4.7V15h1.1v4.1Z" transform="translate(-4.6 -1.6)" style="fill:#fff"/><path d="M232.8,19.1h-1.1V17a3.3,3.3,0,0,0-.1-.9l-.2-.3H231l-.5.2-.3.4a3.6,3.6,0,0,0-.1,1v1.9H229V15h1v.6a1.7,1.7,0,0,1,1.4-.7h.7l.5.3.2.5a3.4,3.4,0,0,1,.1.7Z" transform="translate(-4.6 -1.6)" style="fill:#fff"/><path d="M236.9,16.3l-1-.2a1.6,1.6,0,0,1,.6-.9,2.1,2.1,0,0,1,1.2-.3l1.1.2.5.4a2.3,2.3,0,0,1,.1,1v1.3a4.4,4.4,0,0,0,.1.8l.2.6h-1.1v-.3h0l-.6.4h-.7a1.4,1.4,0,0,1-1-.3,1.2,1.2,0,0,1-.4-.9,1.2,1.2,0,0,1,.2-.6l.5-.4.9-.3,1.1-.3h0a.6.6,0,0,0-.2-.5h-1Zm1.5.9-.7.2-.6.2a.5.5,0,0,0-.2.4.5.5,0,0,0,.2.4l.4.2.6-.2.3-.4a2.2,2.2,0,0,0,0-.5Z" transform="translate(-4.6 -1.6)" style="fill:#fff"/><path d="M242.5,15v.9h-.7v1.7a4.1,4.1,0,0,0,0,.6h.7v.9l-.9.2h-.5l-.3-.3a1,1,0,0,1-.2-.4,5.3,5.3,0,0,1,0-.8V15.9h-.5V15h.5v-.8l1.1-.6V15Z" transform="translate(-4.6 -1.6)" style="fill:#fff"/><path d="M243.2,15h1v.6a1.6,1.6,0,0,1,1.3-.7l.7.2.5.5.6-.5.7-.2.8.2a1.1,1.1,0,0,1,.5.5,2.4,2.4,0,0,1,.1.9v2.7h-1.1V16.8a1.8,1.8,0,0,0-.1-.8.5.5,0,0,0-.5-.2h-.4l-.3.4a3,3,0,0,0-.1.9v2h-1.1V16.9a3.2,3.2,0,0,0-.1-.8l-.2-.3h-.8l-.3.4a2.9,2.9,0,0,0-.1.9v2h-1.1Z" transform="translate(-4.6 -1.6)" style="fill:#fff"/><path d="M250.1,17a2.2,2.2,0,0,1,.3-1.1,1.9,1.9,0,0,1,.8-.8l1.1-.3a2.1,2.1,0,0,1,1.5.6,2.1,2.1,0,0,1,.6,1.5,2.1,2.1,0,0,1-.6,1.6,2.1,2.1,0,0,1-1.5.6l-1.1-.3a1.8,1.8,0,0,1-.8-.8A2.5,2.5,0,0,1,250.1,17Zm1.1.1a1.4,1.4,0,0,0,.3.9,1,1,0,0,0,1.4,0,1.4,1.4,0,0,0,.3-1,1.4,1.4,0,0,0-.3-.9,1,1,0,0,0-1.4,0A1.4,1.4,0,0,0,251.2,17.1Z" transform="translate(-4.6 -1.6)" style="fill:#fff"/><path d="M254.9,18l1.1-.2a.8.8,0,0,0,.3.5l.6.2.6-.2a.3.3,0,0,0,.1-.3v-.2h-.4l-1.7-.5a1.1,1.1,0,0,1-.5-.9,1.1,1.1,0,0,1,.4-.9,2,2,0,0,1,1.3-.4,2.3,2.3,0,0,1,1.3.3,1.4,1.4,0,0,1,.6.8l-1,.2-.3-.4h-1.2v.4l1,.3a3,3,0,0,1,1.2.5,1,1,0,0,1,.3.8,1.3,1.3,0,0,1-.5,1,2.1,2.1,0,0,1-1.4.4,2.3,2.3,0,0,1-1.3-.3A1.6,1.6,0,0,1,254.9,18Z" transform="translate(-4.6 -1.6)" style="fill:#fff"/><path d="M259.7,15h1v.6l.5-.5.8-.2a1.6,1.6,0,0,1,1.2.6,2.3,2.3,0,0,1,.5,1.6,2.4,2.4,0,0,1-.5,1.6,1.6,1.6,0,0,1-1.2.6h-.6l-.6-.5v2.1h-1.1Zm1.1,2a1.6,1.6,0,0,0,.3,1,.8.8,0,0,0,.7.3.8.8,0,0,0,.6-.3,1.6,1.6,0,0,0,.3-1,1.5,1.5,0,0,0-.3-1,.8.8,0,0,0-.6-.3.8.8,0,0,0-.7.3A1.4,1.4,0,0,0,260.7,17Z" transform="translate(-4.6 -1.6)" style="fill:#fff"/><path d="M265.7,13.4v2.1a1.6,1.6,0,0,1,1.3-.6h.7l.5.4.2.5a4.3,4.3,0,0,1,.1.8v2.4h-1.1V17a3.2,3.2,0,0,0-.1-.8l-.2-.3h-.9l-.3.4a2.4,2.4,0,0,0-.1.8v2.1h-1.1V13.4Z" transform="translate(-4.6 -1.6)" style="fill:#fff"/><path d="M271.9,17.8l1.1.2a1.8,1.8,0,0,1-.7.9,2,2,0,0,1-1.1.3,1.9,1.9,0,0,1-1.6-.7,2.4,2.4,0,0,1-.4-1.4,2.3,2.3,0,0,1,.5-1.6,1.8,1.8,0,0,1,1.4-.6,1.8,1.8,0,0,1,1.5.6,2.7,2.7,0,0,1,.5,1.9h-2.7a1.1,1.1,0,0,0,.3.8.8.8,0,0,0,.6.3h.4A.9.9,0,0,0,271.9,17.8Zm.1-1.1a1.1,1.1,0,0,0-.2-.7l-.6-.2a.8.8,0,0,0-.6.3,1,1,0,0,0-.2.7Z" transform="translate(-4.6 -1.6)" style="fill:#fff"/><path d="M275,19.1h-1.1V15h1v.6l.5-.6h.5l.7.2-.3,1-.5-.2h-.4a.9.9,0,0,0-.3.5,6.5,6.5,0,0,0-.1,1.4Z" transform="translate(-4.6 -1.6)" style="fill:#fff"/><path d="M279.4,17.8l1.1.2a1.8,1.8,0,0,1-.7.9,2,2,0,0,1-1.1.3,1.9,1.9,0,0,1-1.6-.7,2.4,2.4,0,0,1-.4-1.4,2.3,2.3,0,0,1,.5-1.6,1.8,1.8,0,0,1,1.4-.6,1.8,1.8,0,0,1,1.5.6,2.7,2.7,0,0,1,.5,1.9h-2.7a1.1,1.1,0,0,0,.3.8.8.8,0,0,0,.6.3h.4A.9.9,0,0,0,279.4,17.8Zm.1-1.1a1.1,1.1,0,0,0-.2-.7l-.6-.2a.8.8,0,0,0-.6.3,1,1,0,0,0-.2.7Z" transform="translate(-4.6 -1.6)" style="fill:#fff"/><path d="M341.7,119.2v-5.7h3.2a1.5,1.5,0,0,1,.8.6,1.8,1.8,0,0,1,.3,1.1,1.9,1.9,0,0,1-.2.9l-.5.6-.6.3h-2v2.2Zm1.2-4.8v1.6h1.5l.4-.3a.8.8,0,0,0,.1-.4.7.7,0,0,0-.2-.5l-.5-.3h-1.4Z" transform="translate(-4.6 -1.6)" style="fill:#fff"/><path d="M347,119.2v-5.7h1.1v5.7Z" transform="translate(-4.6 -1.6)" style="fill:#fff"/><path d="M350,116.3l-1-.2a1.6,1.6,0,0,1,.6-.9,2.1,2.1,0,0,1,1.2-.3l1.1.2.5.4a2.3,2.3,0,0,1,.1,1v1.3a4.4,4.4,0,0,0,.1.8l.2.6h-1.1v-.3h0l-.6.4h-.7a1.4,1.4,0,0,1-1-.3,1.2,1.2,0,0,1-.4-.9,1.2,1.2,0,0,1,.2-.6l.5-.4.9-.3,1.1-.3h0a.6.6,0,0,0-.2-.5h-1Zm1.5.9-.7.2-.6.2a.5.5,0,0,0-.2.4.5.5,0,0,0,.2.4l.4.2.6-.2.3-.4a2.1,2.1,0,0,0,0-.5Z" transform="translate(-4.6 -1.6)" style="fill:#fff"/><path d="M357.4,119.2h-1.1v-2.1a3.3,3.3,0,0,0-.1-.9l-.2-.3h-.4l-.5.2-.3.4a3.6,3.6,0,0,0-.1,1v1.9h-1.1V115h1v.6a1.7,1.7,0,0,1,1.4-.7h.7l.5.3.2.5a3.4,3.4,0,0,1,.1.7Z" transform="translate(-4.6 -1.6)" style="fill:#fff"/><path d="M360.5,115v.9h-.7v1.7a4.3,4.3,0,0,0,0,.6h.7v.9l-.9.2h-.5l-.3-.3a1,1,0,0,1-.2-.4,5.3,5.3,0,0,1,0-.8v-1.8h-.5V115h.5v-.8l1.1-.6V115Z" transform="translate(-4.6 -1.6)" style="fill:#fff"/><path d="M360.8,118l1.1-.2a.8.8,0,0,0,.3.5l.6.2.6-.2a.3.3,0,0,0,.1-.3v-.2h-.4l-1.7-.5a1.1,1.1,0,0,1-.5-.9,1.2,1.2,0,0,1,.4-.9,2,2,0,0,1,1.3-.4,2.3,2.3,0,0,1,1.3.3,1.4,1.4,0,0,1,.6.8l-1,.2-.3-.4h-1.2v.4l1,.3a3,3,0,0,1,1.2.5,1,1,0,0,1,.3.8,1.3,1.3,0,0,1-.5,1,2.1,2.1,0,0,1-1.4.4,2.3,2.3,0,0,1-1.3-.3A1.6,1.6,0,0,1,360.8,118Z" transform="translate(-4.6 -1.6)" style="fill:#fff"/><path d="M48.9,304.2h1.1a1.4,1.4,0,0,0,.4.8,1.2,1.2,0,0,0,.8.3,1.3,1.3,0,0,0,.8-.2.7.7,0,0,0,.3-.6.5.5,0,0,0-.1-.3l-.4-.2-.9-.2a3.2,3.2,0,0,1-1.3-.6,1.5,1.5,0,0,1-.5-1.2,1.5,1.5,0,0,1,.2-.8,1.6,1.6,0,0,1,.7-.6l1.1-.2a2.4,2.4,0,0,1,1.6.5,1.7,1.7,0,0,1,.6,1.3H52.3a1,1,0,0,0-.3-.6l-.7-.2-.8.2a.4.4,0,0,0-.2.4.4.4,0,0,0,.2.3l1.1.4,1.2.4a1.6,1.6,0,0,1,.6.6,1.8,1.8,0,0,1,0,1.8,1.6,1.6,0,0,1-.8.6l-1.2.2a2.5,2.5,0,0,1-1.7-.5A2.2,2.2,0,0,1,48.9,304.2Z" transform="translate(-4.6 -1.6)" style="fill:#fff"/><path d="M55.6,300.3v2.1a1.6,1.6,0,0,1,1.3-.6h.7l.5.4.2.5a4.3,4.3,0,0,1,.1.8v2.4H57.2v-2.2a3.2,3.2,0,0,0-.1-.8l-.2-.3h-.9l-.3.4a2.4,2.4,0,0,0-.1.8v2.1H54.5v-5.7Z" transform="translate(-4.6 -1.6)" style="fill:#fff"/><path d="M61.8,304.7l1.1.2a1.8,1.8,0,0,1-.7.9,2,2,0,0,1-1.1.3,1.9,1.9,0,0,1-1.6-.7,2.4,2.4,0,0,1-.4-1.4,2.3,2.3,0,0,1,.5-1.6,1.8,1.8,0,0,1,1.4-.6,1.8,1.8,0,0,1,1.5.6,2.7,2.7,0,0,1,.5,1.9H60.2a1.1,1.1,0,0,0,.3.8.8.8,0,0,0,.6.3h.4A.9.9,0,0,0,61.8,304.7Zm.1-1.1a1.1,1.1,0,0,0-.2-.7l-.6-.2a.8.8,0,0,0-.6.3,1,1,0,0,0-.2.7Z" transform="translate(-4.6 -1.6)" style="fill:#fff"/><path d="M63.9,306.1v-5.7H65v5.7Z" transform="translate(-4.6 -1.6)" style="fill:#fff"/><path d="M66.1,306.1v-5.7h1.1v5.7Z" transform="translate(-4.6 -1.6)" style="fill:#fff"/><path d="M67.9,304.9l1.1-.2a.8.8,0,0,0,.3.5l.6.2.6-.2a.4.4,0,0,0,.1-.3v-.2h-.4l-1.7-.5a1.1,1.1,0,0,1-.5-.9,1.2,1.2,0,0,1,.4-.9,2,2,0,0,1,1.3-.4,2.3,2.3,0,0,1,1.3.3,1.4,1.4,0,0,1,.6.8l-1,.2-.3-.4H69.2v.4l1,.3a3,3,0,0,1,1.2.5,1,1,0,0,1,.3.8,1.3,1.3,0,0,1-.5,1,2.1,2.1,0,0,1-1.4.4,2.3,2.3,0,0,1-1.3-.3A1.6,1.6,0,0,1,67.9,304.9Z" transform="translate(-4.6 -1.6)" style="fill:#fff"/></svg>