<svg xmlns="http://www.w3.org/2000/svg" viewBox="0 0 486 108"><g id="Layer_1" data-name="Layer 1" style="opacity:0.4"><path d="M62.335,41.9l-5.4-24.8-8,24.8h-2.8l-8-24.8-5.35,24.8h-4.75l7.2-33.552h4.2l8.1,23.6,8.1-23.6h4.251l7.2,33.552Z" style="fill:#fff"/><path d="M95.286,16.9v25h-4.75v-2.75a12.9,12.9,0,1,1,0-19.5V16.9ZM90.335,29.4a8.154,8.154,0,1,0-16.3,0,8.154,8.154,0,1,0,16.3,0Z" style="fill:#fff"/><path d="M111.535,27.651l8.85,14.251h-4.9l-6.7-10.851-2.35,2.85v8h-4.751V4.649h4.751v23.2l8.95-11h5Z" style="fill:#fff"/><path d="M124.983,8.45a2.69,2.69,0,0,1,2.7-2.7,2.7,2.7,0,0,1,0,5.4A2.69,2.69,0,0,1,124.983,8.45Zm.3,8.45h4.751v25h-4.751Z" style="fill:#fff"/><path d="M159.185,27.5V41.9h-4.851V27.651a6.436,6.436,0,0,0-6.4-6.751c-3.65,0-6.4,2.9-6.4,6.8V41.9h-4.751v-25h4.751V20a9.868,9.868,0,0,1,7.4-3.5C154.884,16.5,159.185,21.351,159.185,27.5Z" style="fill:#fff"/><path d="M189.735,16.95v22.9a12.947,12.947,0,0,1-12.9,12.7,13.282,13.282,0,0,1-12.45-7.751l3.8-1.9c.8,2.15,4.15,5.3,8.65,5.3,4.9,0,8.1-4.4,8.2-8.35h-.051V39.2a12.9,12.9,0,1,1,0-19.5V16.95Zm-4.9,12.5a8.154,8.154,0,1,0-16.3,0,8.155,8.155,0,1,0,16.3,0Z" style="fill:#fff"/><path d="M207.382,37.8l3.151-2.751a11.334,11.334,0,0,0,7.251,3.051c3,0,5.1-1.1,5.1-3.1,0-3.85-15.55-3.05-15.55-11.2,0-4.151,3.15-7.3,9.6-7.3a14.256,14.256,0,0,1,10.351,4.451l-3.151,2.8a11.335,11.335,0,0,0-7.25-3.05c-3,0-5.1,1.1-5.1,3.1,0,3.85,15.55,3.05,15.55,11.2,0,4.151-3.149,7.3-9.65,7.3A14.159,14.159,0,0,1,207.382,37.8Z" style="fill:#fff"/><path d="M254.634,16.9v25h-4.751V38.8a9.681,9.681,0,0,1-7.349,3.5c-6,0-10.3-4.85-10.3-11V16.9h4.85V31.151a6.41,6.41,0,1,0,12.8-.05V16.9Z" style="fill:#fff"/><path d="M259.882,37.8l3.151-2.751a11.334,11.334,0,0,0,7.251,3.051c3,0,5.1-1.1,5.1-3.1,0-3.85-15.55-3.05-15.55-11.2,0-4.151,3.15-7.3,9.6-7.3a14.256,14.256,0,0,1,10.351,4.451l-3.151,2.8a11.335,11.335,0,0,0-7.25-3.05c-3,0-5.1,1.1-5.1,3.1,0,3.85,15.55,3.05,15.55,11.2,0,4.151-3.149,7.3-9.65,7.3A14.159,14.159,0,0,1,259.882,37.8Z" style="fill:#fff"/><path d="M299.983,39.052a9.283,9.283,0,0,1-6.8,3.25c-4.1,0-7.5-2.2-7.5-7.3V21.2h-3.55V16.9h3.55V8.75l4.75-.3V16.9h6.8v4.3h-6.8V33.7a3.891,3.891,0,0,0,3.7,4.2,4.093,4.093,0,0,0,3.7-2.6Z" style="fill:#fff"/><path d="M327.384,16.9v25h-4.751v-2.75a12.9,12.9,0,1,1,0-19.5V16.9Zm-4.95,12.5a8.155,8.155,0,1,0-16.3,0,8.155,8.155,0,1,0,16.3,0Z" style="fill:#fff"/><path d="M333.783,8.45a2.689,2.689,0,0,1,2.7-2.7,2.7,2.7,0,0,1,0,5.4A2.689,2.689,0,0,1,333.783,8.45Zm.3,8.45h4.75v25h-4.75Z" style="fill:#fff"/><path d="M367.984,27.5V41.9h-4.851V27.651a6.436,6.436,0,0,0-6.4-6.751c-3.65,0-6.4,2.9-6.4,6.8V41.9h-4.75v-25h4.75V20a9.868,9.868,0,0,1,7.4-3.5C363.684,16.5,367.984,21.351,367.984,27.5Z" style="fill:#fff"/><path d="M398.334,16.9v25h-4.751v-2.75a12.9,12.9,0,1,1,0-19.5V16.9Zm-4.95,12.5a8.154,8.154,0,1,0-16.3,0,8.154,8.154,0,1,0,16.3,0Z" style="fill:#fff"/><path d="M430.834,29.4a12.9,12.9,0,0,1-21.351,9.751V41.9h-4.75V4.649h4.75v15A12.9,12.9,0,0,1,430.834,29.4Zm-4.9,0a8.154,8.154,0,1,0-16.3,0,8.154,8.154,0,1,0,16.3,0Z" style="fill:#fff"/><path d="M435.684,4.649h4.75V41.9h-4.75Z" style="fill:#fff"/><path d="M470.735,28.851,450.484,32.5a7.781,7.781,0,0,0,7.45,5.3c4.5,0,7.851-3.151,8.6-5.3l4.05,1.3a13.894,13.894,0,0,1-12.651,8.4,13.257,13.257,0,0,1-12.251-8.85,12.522,12.522,0,0,1-.649-4.051,12.871,12.871,0,0,1,25.7-1.1A2.817,2.817,0,0,1,470.735,28.851Zm-5.4-2.8a8.2,8.2,0,0,0-7.95-5.4,7.949,7.949,0,0,0-7.5,7.2,8.836,8.836,0,0,1-.05.95Z" style="fill:#fff"/><path d="M24.084,89.051a9.279,9.279,0,0,1-6.8,3.251c-4.1,0-7.5-2.2-7.5-7.3V71.2H6.233V66.9H9.784V58.75l4.75-.3V66.9h6.8v4.3h-6.8V83.7a3.89,3.89,0,0,0,3.7,4.2,4.094,4.094,0,0,0,3.7-2.6Z" style="fill:#fff"/><path d="M50.135,77.551V91.9h-4.8V77.7a6.519,6.519,0,0,0-6.45-6.8c-3.651,0-6.4,2.9-6.4,6.8V91.9h-4.75V54.649h4.75V70a9.87,9.87,0,0,1,7.4-3.5C45.835,66.5,50.135,71.4,50.135,77.551Z" style="fill:#fff"/><path d="M80.085,78.851,59.834,82.5a7.78,7.78,0,0,0,7.45,5.3c4.5,0,7.851-3.15,8.6-5.3l4.05,1.3a13.894,13.894,0,0,1-12.651,8.4,13.254,13.254,0,0,1-12.25-8.85,12.46,12.46,0,0,1-.651-4.05,12.871,12.871,0,0,1,25.7-1.1A2.817,2.817,0,0,1,80.085,78.851Zm-5.4-2.8a8.2,8.2,0,0,0-7.951-5.4,7.947,7.947,0,0,0-7.5,7.2,8.836,8.836,0,0,1-.05.95Z" style="fill:#fff"/><path d="M120.384,77.5V91.9h-4.85V77.65a6.436,6.436,0,0,0-6.4-6.75c-3.651,0-6.4,2.9-6.4,6.8V91.9h-4.75v-25h4.75V70a9.87,9.87,0,0,1,7.4-3.5C116.084,66.5,120.384,71.351,120.384,77.5Z" style="fill:#fff"/><path d="M150.334,78.851,130.083,82.5a7.78,7.78,0,0,0,7.451,5.3c4.5,0,7.85-3.15,8.6-5.3l4.051,1.3a13.9,13.9,0,0,1-12.651,8.4,13.255,13.255,0,0,1-12.251-8.85,12.486,12.486,0,0,1-.65-4.05,12.871,12.871,0,0,1,25.7-1.1A2.817,2.817,0,0,1,150.334,78.851Zm-5.4-2.8a8.2,8.2,0,0,0-7.95-5.4,7.947,7.947,0,0,0-7.5,7.2,8.836,8.836,0,0,1-.05.95Z" style="fill:#fff"/><path d="M191.186,66.9l-8.751,25h-4.75l-6.1-18.55-6.1,18.55h-4.751l-8.75-25h4.75l6.35,18.2,6.351-18.2h4.25l6.4,18.2,6.351-18.2Z" style="fill:#fff"/><path d="M283.232,58.9a3.5,3.5,0,1,1,3.5,3.5A3.5,3.5,0,0,1,283.232,58.9Zm.3,8h6.4v25h-6.4Z" style="fill:#fff"/><path d="M294.282,79.4a12.9,12.9,0,0,1,12.9-12.9,12.767,12.767,0,0,1,11.2,6.551l-5.751,2.8a6.834,6.834,0,0,0-5.45-3.351c-3.75,0-6.5,2.9-6.5,6.9s2.75,6.9,6.5,6.9a6.833,6.833,0,0,0,5.45-3.35l5.751,2.8a12.767,12.767,0,0,1-11.2,6.551A12.9,12.9,0,0,1,294.282,79.4Z" style="fill:#fff"/><path d="M347.033,66.9v25h-6.4v-1.65a12.731,12.731,0,0,1-6.95,2.051,12.9,12.9,0,0,1,0-25.8,12.739,12.739,0,0,1,6.95,2.05V66.9Zm-6.651,12.5c0-4-2.75-6.9-6.5-6.9s-6.5,2.9-6.5,6.9,2.75,6.9,6.5,6.9S340.382,83.4,340.382,79.4Z" style="fill:#fff"/><path d="M352.381,54.649h6.4V91.9h-6.4Z" style="fill:#fff"/><circle cx="367.878" cy="88.701" r="3.405" style="fill:#fff"/><path d="M266.106,66.393a12.832,12.832,0,0,0-7.011,2.078V66.8h-6.4V104h6.4V90.115a12.9,12.9,0,1,0,7.013-23.722Zm0,19.1a6.2,6.2,0,1,1,6.2-6.2,6.2,6.2,0,0,1-6.2,6.2h0Z" style="fill:#fff"/><path d="M248.944,66.8l-13,34.553h-6.4l4.551-12.1L225.244,66.8h6.4l5.6,14.15,5.3-14.15Z" style="fill:#fff"/><path d="M223.345,89.2a10.16,10.16,0,0,1-7.051,3c-4.3,0-7.6-2.1-7.6-7.3V72.552h-3.05V66.8H208.7v-8.35l6.4-.149v8.5H221v5.75h-5.9v10.4c0,2.051,1.2,3.3,2.6,3.3a2.864,2.864,0,0,0,2.9-2.15Z" style="fill:#fff"/></g></svg>