<svg id="typ." xmlns="http://www.w3.org/2000/svg" viewBox="0 0 486 108"><path d="M266.106,66.393a12.832,12.832,0,0,0-7.011,2.078V66.8h-6.4V104h6.4V90.115a12.9,12.9,0,1,0,7.013-23.722Zm0,19.1a6.2,6.2,0,1,1,6.2-6.2,6.2,6.2,0,0,1-6.2,6.2h0Z" style="fill:#fff"/><path d="M248.944,66.8l-13,34.553h-6.4l4.551-12.1L225.244,66.8h6.4l5.6,14.15,5.3-14.15Z" style="fill:#fff"/><path d="M223.345,89.2a10.16,10.16,0,0,1-7.051,3c-4.3,0-7.6-2.1-7.6-7.3V72.552h-3.05V66.8H208.7v-8.35l6.4-.149v8.5H221v5.75h-5.9v10.4c0,2.051,1.2,3.3,2.6,3.3a2.864,2.864,0,0,0,2.9-2.15Z" style="fill:#fff"/></svg>