<svg xmlns="http://www.w3.org/2000/svg" viewBox="0 0 357.333 56"><title>WordmarkFuss</title><rect width="246.25" height="56" style="fill:#16161d"/><path d="M110.571,6.465V40.017h-4.8l-16.6-26.1v26.1H84.42V6.465h4.8l16.6,26.1V6.465Z" style="fill:#fff"/><path d="M114.92,27.516a12.9,12.9,0,1,1,12.9,12.9A12.9,12.9,0,0,1,114.92,27.516Zm21.2,0a8.156,8.156,0,1,0-16.3,0,8.154,8.154,0,1,0,16.3,0Z" style="fill:#fff"/><path d="M169.069,18.616h-4.55v21.4h-4.7v-21.4h-2.95v-3.7h2.95V7.765c0-3.2,1.75-5.351,4.6-5.351a12.847,12.847,0,0,1,4.4.75l-.95,3.6a8.3,8.3,0,0,0-1.8-.25c-1.2,0-1.55.65-1.55,2.75v5.65h4.55Z" style="fill:#fff"/><path d="M196.27,15.015v25h-4.751v-3.1a9.681,9.681,0,0,1-7.35,3.5c-6,0-10.3-4.851-10.3-11v-14.4h4.85V29.266a6.411,6.411,0,1,0,12.8-.05v-14.2Z" style="fill:#fff"/><path d="M201.518,35.917l3.15-2.75a11.337,11.337,0,0,0,7.251,3.051c3,0,5.1-1.1,5.1-3.1,0-3.851-15.551-3.05-15.551-11.2,0-4.149,3.15-7.3,9.6-7.3a14.257,14.257,0,0,1,10.351,4.45l-3.15,2.8a11.335,11.335,0,0,0-7.25-3.05c-3,0-5.1,1.1-5.1,3.1,0,3.851,15.551,3.051,15.551,11.2,0,4.15-3.149,7.3-9.65,7.3A14.158,14.158,0,0,1,201.518,35.917Z" style="fill:#fff"/><path d="M225.268,35.917l3.15-2.75a11.337,11.337,0,0,0,7.251,3.051c3,0,5.1-1.1,5.1-3.1,0-3.851-15.551-3.05-15.551-11.2,0-4.149,3.15-7.3,9.6-7.3a14.257,14.257,0,0,1,10.351,4.45l-3.15,2.8a11.335,11.335,0,0,0-7.25-3.05c-3,0-5.1,1.1-5.1,3.1,0,3.851,15.551,3.051,15.551,11.2,0,4.15-3.149,7.3-9.65,7.3A14.158,14.158,0,0,1,225.268,35.917Z" style="fill:#fff"/></svg>