<svg xmlns="http://www.w3.org/2000/svg" viewBox="0 0 357.333 56"><title>WordmarkTYP</title><circle cx="349.935" cy="37.13" r="3.405" style="fill:#fff"/><path d="M329.411,14.822A12.83,12.83,0,0,0,322.4,16.9V15.231H316v37.2h6.4V38.544a12.9,12.9,0,1,0,7.013-23.722Zm0,19.1a6.2,6.2,0,1,1,6.2-6.2A6.2,6.2,0,0,1,329.411,33.923Z" style="fill:#fff"/><path d="M312.249,15.231l-13,34.553h-6.4l4.551-12.1-8.851-22.451h6.4l5.6,14.15,5.3-14.15Z" style="fill:#fff"/><path d="M286.65,37.632a10.157,10.157,0,0,1-7.051,3c-4.3,0-7.6-2.1-7.6-7.3V20.981h-3.05v-5.75H272V6.881l6.4-.149v8.5h5.9v5.75h-5.9v10.4c0,2.051,1.2,3.3,2.6,3.3a2.863,2.863,0,0,0,2.9-2.15Z" style="fill:#fff"/></svg>