<svg xmlns="http://www.w3.org/2000/svg" viewBox="0 0 357.333 56"><title>WordmarkArchitects</title><rect width="246.25" height="56" style="fill:#16161d"/><path d="M33.67,30.617h-14.6l-3.75,9.4h-5l13.8-33.552h4.5l13.8,33.552h-5Zm-1.851-4.75-5.45-13.7-5.45,13.7Z" style="fill:#fff"/><path d="M61.62,15.666l-1.45,4.851a6.638,6.638,0,0,0-3.75-1.5c-3.65,0-6.4,2.9-6.4,6.8v14.2h-4.75v-25h4.75v3.1a9.864,9.864,0,0,1,7.4-3.5A8.581,8.581,0,0,1,61.62,15.666Z" style="fill:#fff"/><path d="M62.269,27.516a12.861,12.861,0,0,1,23.952-6.55l-4.25,2.05a8.474,8.474,0,0,0-6.8-3.9,8.088,8.088,0,0,0-8.15,8.4,8.088,8.088,0,0,0,8.15,8.4,8.474,8.474,0,0,0,6.8-3.9l4.25,2.051a12.861,12.861,0,0,1-23.952-6.551Z" style="fill:#fff"/><path d="M113.72,25.667V40.017h-4.8v-14.2a6.518,6.518,0,0,0-6.45-6.8c-3.65,0-6.4,2.9-6.4,6.8v14.2h-4.75V2.764h4.75V18.116a9.866,9.866,0,0,1,7.4-3.5C109.42,14.616,113.72,19.516,113.72,25.667Z" style="fill:#fff"/><path d="M119.818,6.565a2.689,2.689,0,0,1,2.7-2.7,2.7,2.7,0,0,1,0,5.4A2.689,2.689,0,0,1,119.818,6.565Zm.3,8.45h4.751v25h-4.751Z" style="fill:#fff"/><path d="M146.47,37.167a9.281,9.281,0,0,1-6.8,3.251c-4.1,0-7.5-2.2-7.5-7.3v-13.8h-3.55v-4.3h3.55V6.865l4.75-.3v8.45h6.8v4.3h-6.8v12.5a3.891,3.891,0,0,0,3.7,4.2,4.094,4.094,0,0,0,3.7-2.6Z" style="fill:#fff"/><path d="M173.47,26.966l-20.251,3.65a7.781,7.781,0,0,0,7.45,5.3c4.5,0,7.851-3.149,8.6-5.3l4.051,1.3a13.9,13.9,0,0,1-12.651,8.4,13.256,13.256,0,0,1-12.251-8.851,12.506,12.506,0,0,1-.649-4.05,12.871,12.871,0,0,1,25.7-1.1A2.831,2.831,0,0,1,173.47,26.966Zm-5.4-2.8a8.2,8.2,0,0,0-7.95-5.4,7.946,7.946,0,0,0-7.5,7.2,8.869,8.869,0,0,1-.05.95Z" style="fill:#fff"/><path d="M177.219,27.516a12.86,12.86,0,0,1,23.951-6.55l-4.25,2.05a8.475,8.475,0,0,0-6.8-3.9,8.088,8.088,0,0,0-8.15,8.4,8.087,8.087,0,0,0,8.15,8.4,8.475,8.475,0,0,0,6.8-3.9l4.25,2.051a12.86,12.86,0,0,1-23.951-6.551Z" style="fill:#fff"/><path d="M222.068,37.167a9.281,9.281,0,0,1-6.8,3.251c-4.1,0-7.5-2.2-7.5-7.3v-13.8h-3.55v-4.3h3.55V6.865l4.75-.3v8.45h6.8v4.3h-6.8v12.5a3.891,3.891,0,0,0,3.7,4.2,4.094,4.094,0,0,0,3.7-2.6Z" style="fill:#fff"/><path d="M225.267,35.917l3.15-2.75a11.337,11.337,0,0,0,7.251,3.051c3,0,5.1-1.1,5.1-3.1,0-3.851-15.551-3.05-15.551-11.2,0-4.149,3.15-7.3,9.6-7.3a14.257,14.257,0,0,1,10.351,4.45l-3.15,2.8a11.335,11.335,0,0,0-7.25-3.05c-3,0-5.1,1.1-5.1,3.1,0,3.851,15.551,3.051,15.551,11.2,0,4.15-3.149,7.3-9.65,7.3A14.158,14.158,0,0,1,225.267,35.917Z" style="fill:#fff"/></svg>