<svg xmlns="http://www.w3.org/2000/svg" xmlns:xlink="http://www.w3.org/1999/xlink" viewBox="0 0 792 612"><defs><radialGradient id="a" cx="555.651" cy="383.519" r="344.464" gradientUnits="userSpaceOnUse"><stop offset="0" stop-color="#7ab3ff"/><stop offset="0.007" stop-color="#76adf6"/><stop offset="0.048" stop-color="#608cc8"/><stop offset="0.093" stop-color="#4b6e9d"/><stop offset="0.142" stop-color="#395477"/><stop offset="0.195" stop-color="#293d57"/><stop offset="0.254" stop-color="#1c2a3b"/><stop offset="0.32" stop-color="#121a25"/><stop offset="0.397" stop-color="#0a0e14"/><stop offset="0.493" stop-color="#040609"/><stop offset="0.627" stop-color="#010102"/><stop offset="1"/></radialGradient><radialGradient id="b" cx="555.651" cy="383.519" r="84.464" gradientUnits="userSpaceOnUse"><stop offset="0" stop-color="#ffff43"/><stop offset="0.007" stop-color="#f6f641"/><stop offset="0.048" stop-color="#c8c835"/><stop offset="0.093" stop-color="#9d9d29"/><stop offset="0.142" stop-color="#77771f"/><stop offset="0.195" stop-color="#575717"/><stop offset="0.254" stop-color="#3b3b10"/><stop offset="0.32" stop-color="#25250a"/><stop offset="0.397" stop-color="#141405"/><stop offset="0.493" stop-color="#090902"/><stop offset="0.627" stop-color="#020200"/><stop offset="1"/></radialGradient></defs><title>WordmarkFlare</title><g style="isolation:isolate"><rect width="792" height="612" style="fill:#16161d"/><circle cx="555.651" cy="383.519" r="344.464" style="opacity:0.35000000000000003;mix-blend-mode:screen;fill:url(#a)"/><circle cx="555.651" cy="383.519" r="84.464" style="opacity:0.4;mix-blend-mode:screen;fill:url(#b)"/><text transform="translate(206.532 248.405)" style="font-size:50px;fill:#fff;font-family:Wavehaus-95SemiBold, Wavehaus;font-weight:700"><tspan style="letter-spacing:-0.019990234375em">N</tspan><tspan x="31.55" y="0">o d</tspan><tspan x="105.45" y="0" style="letter-spacing:0.015em">r</tspan><tspan x="126.35" y="0">y</tspan><tspan x="151.35" y="0" style="letter-spacing:-0.05em">w</tspan><tspan x="190.85" y="0">a</tspan><tspan x="222.3" y="0" style="letter-spacing:-0.00498046875em">l</tspan><tspan x="233.201" y="0">l,</tspan><tspan x="80.4" y="46" style="letter-spacing:-0.01998046875em">N</tspan><tspan x="111.95" y="46">o fu</tspan><tspan x="198.648" y="46" style="letter-spacing:-0.005em">s</tspan><tspan x="222.398" y="46" style="letter-spacing:-0.0409765625em">s</tspan><tspan x="244.349" y="46">,</tspan><tspan x="7.799" y="138" style="letter-spacing:-0.040986328125em">A</tspan><tspan x="41.249" y="138" style="letter-spacing:-0.0419921875em">r</tspan><tspan x="59.299" y="138" style="letter-spacing:-0.004990234375em">c</tspan><tspan x="87.299" y="138">h</tspan><tspan x="115.799" y="138" style="letter-spacing:-0.013984375em">i</tspan><tspan x="126.9" y="138" style="letter-spacing:-0.05em">t</tspan><tspan x="144.799" y="138" style="letter-spacing:-0.013984375em">e</tspan><tspan x="174.25" y="138">c</tspan><tspan x="202.499" y="138" style="letter-spacing:-0.01em">t</tspan><tspan x="222.398" y="138" style="letter-spacing:-0.0409765625em">s</tspan><tspan x="244.349" y="138">,</tspan></text><circle cx="555.651" cy="383.519" r="3.405" style="fill:#ffff43"/><path d="M535.128,361.21a12.83,12.83,0,0,0-7.013,2.082v-1.672h-6.4v37.2h6.4V384.932a12.9,12.9,0,1,0,7.013-23.722Zm0,19.1a6.2,6.2,0,1,1,6.2-6.2A6.2,6.2,0,0,1,535.128,380.311Z" style="fill:#fff"/><path d="M517.966,361.619l-13,34.553h-6.4l4.551-12.1-8.851-22.451h6.4l5.6,14.15,5.3-14.15Z" style="fill:#fff"/><path d="M492.366,384.021a10.157,10.157,0,0,1-7.051,3c-4.3,0-7.6-2.1-7.6-7.3V367.369h-3.05v-5.75h3.05v-8.351l6.4-.149v8.5h5.9v5.75h-5.9v10.4c0,2.051,1.2,3.3,2.6,3.3a2.863,2.863,0,0,0,2.9-2.15Z" style="fill:#fff"/></g></svg>