<svg xmlns="http://www.w3.org/2000/svg" viewBox="0 0 357.333 56"><title>WordmarkDrywall</title><path d="M30.167,6.465V40.017h-4.8l-16.6-26.1v26.1H4.016V6.465h4.8l16.6,26.1V6.465Z" style="fill:#fff"/><path d="M34.515,27.516a12.9,12.9,0,1,1,12.9,12.9A12.9,12.9,0,0,1,34.515,27.516Zm21.2,0a8.156,8.156,0,1,0-16.3,0,8.154,8.154,0,1,0,16.3,0Z" style="fill:#fff"/><path d="M103.066,2.765V40.017h-4.75v-2.75a12.9,12.9,0,1,1,0-19.5v-15Zm-4.95,24.751a8.154,8.154,0,1,0-16.3,0,8.154,8.154,0,1,0,16.3,0Z" style="fill:#fff"/><path d="M125.816,15.666l-1.449,4.851a6.64,6.64,0,0,0-3.751-1.5c-3.65,0-6.4,2.9-6.4,6.8v14.2h-4.75v-25h4.75v3.1a9.866,9.866,0,0,1,7.4-3.5A8.581,8.581,0,0,1,125.816,15.666Z" style="fill:#fff"/><path d="M150.767,15.015l-13.3,35.1h-4.75l4.9-12.951-9.05-22.151h4.75l6.6,16.151,6.1-16.151Z" style="fill:#fff"/><path d="M192.768,15.015l-8.751,25h-4.75l-6.1-18.551-6.1,18.551h-4.751l-8.75-25h4.75l6.351,18.2,6.351-18.2h4.25l6.4,18.2,6.351-18.2Z" style="fill:#fff"/><path d="M219.917,15.015v25h-4.751v-2.75a12.9,12.9,0,1,1,0-19.5V15.015Zm-4.95,12.5a8.155,8.155,0,1,0-16.3,0,8.155,8.155,0,1,0,16.3,0Z" style="fill:#fff"/><path d="M226.316,2.765h4.75V40.017h-4.75Z" style="fill:#fff"/><path d="M237.217,2.765h4.75V40.017h-4.75Z" style="fill:#fff"/><path d="M249.166,33.867h4.3l-3.1,8.65h-3.5Z" style="fill:#fff"/></svg>