<svg xmlns="http://www.w3.org/2000/svg" viewBox="0 0 792 612"><title>WordmarkTYP</title><circle cx="555.651" cy="383.519" r="3.405" style="fill:#333"/><path d="M535.128,361.21a12.83,12.83,0,0,0-7.013,2.082v-1.672h-6.4v37.2h6.4V384.932a12.9,12.9,0,1,0,7.013-23.722Zm0,19.1a6.2,6.2,0,1,1,6.2-6.2A6.2,6.2,0,0,1,535.128,380.311Z" style="fill:#333"/><path d="M517.966,361.619l-13,34.553h-6.4l4.551-12.1-8.851-22.451h6.4l5.6,14.15,5.3-14.15Z" style="fill:#333"/><path d="M492.366,384.021a10.157,10.157,0,0,1-7.051,3c-4.3,0-7.6-2.1-7.6-7.3V367.369h-3.05v-5.75h3.05v-8.351l6.4-.149v8.5h5.9v5.75h-5.9v10.4c0,2.051,1.2,3.3,2.6,3.3a2.863,2.863,0,0,0,2.9-2.15Z" style="fill:#333"/></svg>